# Nv = 48  Nvt = 0  Nvn = 276  Npoly = 92
# Exported from Wings 3D 1.2
mtllib ARC_ArmSegment.mtl
o Arm
#48 vertices, 92 faces
v 5.0000000e-2 5.9967437e-17 1.00000000
v 4.8296291e-2 -1.2940952e-2 1.00000000
v 4.3301270e-2 -2.5000000e-2 1.00000000
v 3.5355339e-2 -3.5355339e-2 1.00000000
v 2.5000000e-2 -4.3301270e-2 1.00000000
v 1.2940952e-2 -4.8296291e-2 1.00000000
v 3.0616170e-18 -5.0000000e-2 1.00000000
v -1.2940952e-2 -4.8296291e-2 1.00000000
v -2.5000000e-2 -4.3301270e-2 1.00000000
v -3.5355339e-2 -3.5355339e-2 1.00000000
v -4.3301270e-2 -2.5000000e-2 1.00000000
v -4.8296291e-2 -1.2940952e-2 1.00000000
v -5.0000000e-2 5.3844203e-17 1.00000000
v -4.8296291e-2 1.2940952e-2 1.00000000
v -4.3301270e-2 2.5000000e-2 1.00000000
v -3.5355339e-2 3.5355339e-2 1.00000000
v -2.5000000e-2 4.3301270e-2 1.00000000
v -1.2940952e-2 4.8296291e-2 1.00000000
v -9.1848510e-18 5.0000000e-2 1.00000000
v 1.2940952e-2 4.8296291e-2 1.00000000
v 2.5000000e-2 4.3301270e-2 1.00000000
v 3.5355339e-2 3.5355339e-2 1.00000000
v 4.3301270e-2 2.5000000e-2 1.00000000
v 4.8296291e-2 1.2940952e-2 1.00000000
v 5.0000000e-2 -6.2497242e-17 -1.00000000
v 4.8296291e-2 -1.2940952e-2 -1.00000000
v 4.3301270e-2 -2.5000000e-2 -1.00000000
v 3.5355339e-2 -3.5355339e-2 -1.00000000
v 2.5000000e-2 -4.3301270e-2 -1.00000000
v 1.2940952e-2 -4.8296291e-2 -1.00000000
v 3.0616170e-18 -5.0000000e-2 -1.00000000
v -1.2940952e-2 -4.8296291e-2 -1.00000000
v -2.5000000e-2 -4.3301270e-2 -1.00000000
v -3.5355339e-2 -3.5355339e-2 -1.00000000
v -4.3301270e-2 -2.5000000e-2 -1.00000000
v -4.8296291e-2 -1.2940952e-2 -1.00000000
v -5.0000000e-2 -6.8620476e-17 -1.00000000
v -4.8296291e-2 1.2940952e-2 -1.00000000
v -4.3301270e-2 2.5000000e-2 -1.00000000
v -3.5355339e-2 3.5355339e-2 -1.00000000
v -2.5000000e-2 4.3301270e-2 -1.00000000
v -1.2940952e-2 4.8296291e-2 -1.00000000
v -9.1848510e-18 5.0000000e-2 -1.00000000
v 1.2940952e-2 4.8296291e-2 -1.00000000
v 2.5000000e-2 4.3301270e-2 -1.00000000
v 3.5355339e-2 3.5355339e-2 -1.00000000
v 4.3301270e-2 2.5000000e-2 -1.00000000
v 4.8296291e-2 1.2940952e-2 -1.00000000
vn 0.0000000e+0 0.0000000e+0 1.00000000
vn 0.0000000e+0 0.0000000e+0 1.00000000
vn 0.0000000e+0 0.0000000e+0 1.00000000
vn 1.00000000 -1.8196800e-16 1.0878273e-32
vn 1.00000000 -1.8196800e-16 1.0878273e-32
vn 0.96592583 -0.25881905 1.5807064e-17
vn 0.96592583 -0.25881905 1.5807064e-17
vn 0.0000000e+0 0.0000000e+0 1.00000000
vn 0.0000000e+0 0.0000000e+0 1.00000000
vn 0.0000000e+0 0.0000000e+0 1.00000000
vn 0.96592583 -0.25881905 1.5807064e-17
vn 0.96592583 -0.25881905 1.5807064e-17
vn 0.0000000e+0 0.0000000e+0 1.00000000
vn 0.0000000e+0 0.0000000e+0 1.00000000
vn 0.0000000e+0 0.0000000e+0 1.00000000
vn 0.86602540 -0.50000000 3.0894137e-17
vn 0.86602540 -0.50000000 3.0894137e-17
vn 0.70710678 -0.70710678 4.4508502e-17
vn 0.70710678 -0.70710678 4.4508502e-17
vn 0.0000000e+0 0.0000000e+0 1.00000000
vn 0.0000000e+0 0.0000000e+0 1.00000000
vn 0.0000000e+0 0.0000000e+0 1.00000000
vn 0.70710678 -0.70710678 4.4508502e-17
vn 0.70710678 -0.70710678 4.4508502e-17
vn 0.0000000e+0 0.0000000e+0 1.00000000
vn 0.0000000e+0 0.0000000e+0 1.00000000
vn 0.0000000e+0 0.0000000e+0 1.00000000
vn 0.50000000 -0.86602540 5.4457462e-17
vn 0.50000000 -0.86602540 5.4457462e-17
vn 0.25881905 -0.96592583 6.0741015e-17
vn 0.25881905 -0.96592583 6.0741015e-17
vn 0.0000000e+0 0.0000000e+0 1.00000000
vn 0.0000000e+0 0.0000000e+0 1.00000000
vn 0.0000000e+0 0.0000000e+0 1.00000000
vn 0.25881905 -0.96592583 6.0741015e-17
vn 0.25881905 -0.96592583 6.0741015e-17
vn 0.0000000e+0 0.0000000e+0 1.00000000
vn 2.0996308e-16 -1.00000000 5.4457462e-17
vn 2.0996308e-16 -1.00000000 5.4457462e-17
vn -0.25881905 -0.96592583 6.0741015e-17
vn -0.25881905 -0.96592583 6.0741015e-17
vn 0.0000000e+0 0.0000000e+0 1.00000000
vn 0.0000000e+0 0.0000000e+0 1.00000000
vn -0.25881905 -0.96592583 6.0741015e-17
vn -0.25881905 -0.96592583 6.0741015e-17
vn 0.0000000e+0 0.0000000e+0 1.00000000
vn 0.0000000e+0 0.0000000e+0 1.00000000
vn 0.0000000e+0 0.0000000e+0 1.00000000
vn -0.50000000 -0.86602540 6.0741015e-17
vn -0.50000000 -0.86602540 6.0741015e-17
vn -0.70710678 -0.70710678 4.4508502e-17
vn -0.70710678 -0.70710678 4.4508502e-17
vn 0.0000000e+0 0.0000000e+0 1.00000000
vn 0.0000000e+0 0.0000000e+0 1.00000000
vn 0.0000000e+0 0.0000000e+0 1.00000000
vn -0.70710678 -0.70710678 4.4508502e-17
vn -0.70710678 -0.70710678 4.4508502e-17
vn 0.0000000e+0 0.0000000e+0 1.00000000
vn 0.0000000e+0 0.0000000e+0 1.00000000
vn 0.0000000e+0 0.0000000e+0 1.00000000
vn -0.86602540 -0.50000000 3.1941396e-17
vn -0.86602540 -0.50000000 3.1941396e-17
vn -0.96592583 -0.25881905 1.6068878e-17
vn -0.96592583 -0.25881905 1.6068878e-17
vn 0.0000000e+0 0.0000000e+0 1.00000000
vn 0.0000000e+0 0.0000000e+0 1.00000000
vn 0.0000000e+0 0.0000000e+0 1.00000000
vn -0.96592583 -0.25881905 1.6068878e-17
vn -0.96592583 -0.25881905 1.6068878e-17
vn 0.0000000e+0 0.0000000e+0 1.00000000
vn 0.0000000e+0 0.0000000e+0 1.00000000
vn 0.0000000e+0 0.0000000e+0 1.00000000
vn -1.00000000 -4.0592862e-16 -7.7701949e-33
vn -1.00000000 -4.0592862e-16 -7.7701949e-33
vn 0.0000000e+0 0.0000000e+0 1.00000000
vn -0.96592583 0.25881905 -1.5807064e-17
vn -0.96592583 0.25881905 -1.5807064e-17
vn 0.0000000e+0 0.0000000e+0 1.00000000
vn 0.0000000e+0 0.0000000e+0 1.00000000
vn -0.96592583 0.25881905 -1.5807064e-17
vn -0.96592583 0.25881905 -1.5807064e-17
vn 0.0000000e+0 0.0000000e+0 1.00000000
vn 0.0000000e+0 0.0000000e+0 1.00000000
vn 0.0000000e+0 0.0000000e+0 1.00000000
vn -0.86602540 0.50000000 -3.1941396e-17
vn -0.86602540 0.50000000 -3.1941396e-17
vn -0.70710678 0.70710678 -4.4508502e-17
vn -0.70710678 0.70710678 -4.4508502e-17
vn 0.0000000e+0 0.0000000e+0 1.00000000
vn 0.0000000e+0 0.0000000e+0 1.00000000
vn 0.0000000e+0 0.0000000e+0 1.00000000
vn -0.70710678 0.70710678 -4.4508502e-17
vn -0.70710678 0.70710678 -4.4508502e-17
vn 0.0000000e+0 0.0000000e+0 1.00000000
vn 0.0000000e+0 0.0000000e+0 1.00000000
vn 0.0000000e+0 0.0000000e+0 1.00000000
vn -0.50000000 0.86602540 -5.2362944e-17
vn -0.50000000 0.86602540 -5.2362944e-17
vn -0.25881905 0.96592583 -5.8646497e-17
vn -0.25881905 0.96592583 -5.8646497e-17
vn 0.0000000e+0 0.0000000e+0 1.00000000
vn 0.0000000e+0 0.0000000e+0 1.00000000
vn 0.0000000e+0 0.0000000e+0 1.00000000
vn -0.25881905 0.96592583 -5.8646497e-17
vn -0.25881905 0.96592583 -5.8646497e-17
vn 0.0000000e+0 0.0000000e+0 1.00000000
vn -6.0189416e-16 1.00000000 -5.4457462e-17
vn -6.0189416e-16 1.00000000 -5.4457462e-17
vn 0.25881905 0.96592583 -6.0741015e-17
vn 0.25881905 0.96592583 -6.0741015e-17
vn 0.0000000e+0 0.0000000e+0 1.00000000
vn 0.0000000e+0 0.0000000e+0 1.00000000
vn 0.25881905 0.96592583 -6.0741015e-17
vn 0.25881905 0.96592583 -6.0741015e-17
vn 0.0000000e+0 0.0000000e+0 1.00000000
vn 0.0000000e+0 0.0000000e+0 1.00000000
vn 0.0000000e+0 0.0000000e+0 1.00000000
vn 0.50000000 0.86602540 -5.8646497e-17
vn 0.50000000 0.86602540 -5.8646497e-17
vn 0.70710678 0.70710678 -4.3984873e-17
vn 0.70710678 0.70710678 -4.3984873e-17
vn 0.0000000e+0 0.0000000e+0 1.00000000
vn 0.0000000e+0 0.0000000e+0 1.00000000
vn 0.0000000e+0 0.0000000e+0 1.00000000
vn 0.70710678 0.70710678 -4.3984873e-17
vn 0.70710678 0.70710678 -4.3984873e-17
vn 0.0000000e+0 0.0000000e+0 1.00000000
vn 0.0000000e+0 0.0000000e+0 1.00000000
vn 0.0000000e+0 0.0000000e+0 1.00000000
vn 0.86602540 0.50000000 -3.0894137e-17
vn 0.86602540 0.50000000 -3.0894137e-17
vn 0.0000000e+0 0.0000000e+0 1.00000000
vn 0.96592583 0.25881905 -1.5545249e-17
vn 0.96592583 0.25881905 -1.5545249e-17
vn 0.0000000e+0 0.0000000e+0 1.00000000
vn 0.0000000e+0 0.0000000e+0 1.00000000
vn 0.96592583 0.25881905 -1.5545249e-17
vn 0.96592583 0.25881905 -1.5545249e-17
vn 1.00000000 3.2894216e-16 1.2043802e-32
vn 1.00000000 3.4293970e-16 1.2432312e-32
vn 0.0000000e+0 0.0000000e+0 -1.00000000
vn 0.0000000e+0 0.0000000e+0 -1.00000000
vn 0.0000000e+0 0.0000000e+0 -1.00000000
vn 1.00000000 3.2894216e-16 1.2043802e-32
vn 1.00000000 3.4293970e-16 1.2432312e-32
vn 0.96592583 -0.25881905 1.5512522e-17
vn 0.96592583 -0.25881905 1.5512522e-17
vn 0.0000000e+0 0.0000000e+0 -1.00000000
vn 0.0000000e+0 0.0000000e+0 -1.00000000
vn 0.0000000e+0 0.0000000e+0 -1.00000000
vn 0.86602540 -0.50000000 3.1155952e-17
vn 0.86602540 -0.50000000 3.1155952e-17
vn 0.0000000e+0 0.0000000e+0 -1.00000000
vn 0.0000000e+0 0.0000000e+0 -1.00000000
vn 0.0000000e+0 0.0000000e+0 -1.00000000
vn 0.86602540 -0.50000000 3.1155952e-17
vn 0.86602540 -0.50000000 3.1155952e-17
vn 0.70710678 -0.70710678 4.5032132e-17
vn 0.70710678 -0.70710678 4.5032132e-17
vn 0.0000000e+0 0.0000000e+0 -1.00000000
vn 0.0000000e+0 0.0000000e+0 -1.00000000
vn 0.0000000e+0 0.0000000e+0 -1.00000000
vn 0.50000000 -0.86602540 5.4457462e-17
vn 0.50000000 -0.86602540 5.4457462e-17
vn 0.0000000e+0 0.0000000e+0 -1.00000000
vn 0.0000000e+0 0.0000000e+0 -1.00000000
vn 0.0000000e+0 0.0000000e+0 -1.00000000
vn 0.50000000 -0.86602540 5.4457462e-17
vn 0.50000000 -0.86602540 5.4457462e-17
vn 0.0000000e+0 0.0000000e+0 -1.00000000
vn 0.25881905 -0.96592583 6.2835533e-17
vn 0.25881905 -0.96592583 6.2835533e-17
vn 0.0000000e+0 0.0000000e+0 -1.00000000
vn 0.0000000e+0 0.0000000e+0 -1.00000000
vn 2.0996308e-16 -1.00000000 6.2835533e-17
vn 2.0996308e-16 -1.00000000 6.2835533e-17
vn 2.0996308e-16 -1.00000000 6.2835533e-17
vn 2.0996308e-16 -1.00000000 6.2835533e-17
vn 0.0000000e+0 0.0000000e+0 -1.00000000
vn -0.25881905 -0.96592583 6.2835533e-17
vn -0.25881905 -0.96592583 6.2835533e-17
vn 0.0000000e+0 0.0000000e+0 -1.00000000
vn 0.0000000e+0 0.0000000e+0 -1.00000000
vn -0.50000000 -0.86602540 5.4457462e-17
vn -0.50000000 -0.86602540 5.4457462e-17
vn 0.0000000e+0 0.0000000e+0 -1.00000000
vn 0.0000000e+0 0.0000000e+0 -1.00000000
vn 0.0000000e+0 0.0000000e+0 -1.00000000
vn -0.50000000 -0.86602540 5.4457462e-17
vn -0.50000000 -0.86602540 5.4457462e-17
vn -0.70710678 -0.70710678 4.1890355e-17
vn -0.70710678 -0.70710678 4.1890355e-17
vn 0.0000000e+0 0.0000000e+0 -1.00000000
vn 0.0000000e+0 0.0000000e+0 -1.00000000
vn 0.0000000e+0 0.0000000e+0 -1.00000000
vn -0.86602540 -0.50000000 3.1417766e-17
vn -0.86602540 -0.50000000 3.1417766e-17
vn 0.0000000e+0 0.0000000e+0 -1.00000000
vn 0.0000000e+0 0.0000000e+0 -1.00000000
vn 0.0000000e+0 0.0000000e+0 -1.00000000
vn -0.86602540 -0.50000000 3.1417766e-17
vn -0.86602540 -0.50000000 3.1417766e-17
vn -0.96592583 -0.25881905 1.6036152e-17
vn -0.96592583 -0.25881905 1.6036152e-17
vn 0.0000000e+0 0.0000000e+0 -1.00000000
vn 0.0000000e+0 0.0000000e+0 -1.00000000
vn 0.0000000e+0 0.0000000e+0 -1.00000000
vn -1.00000000 -4.2692493e-16 -6.9931754e-33
vn -1.00000000 -4.1292739e-16 -6.9931754e-33
vn 0.0000000e+0 0.0000000e+0 -1.00000000
vn 0.0000000e+0 0.0000000e+0 -1.00000000
vn 0.0000000e+0 0.0000000e+0 -1.00000000
vn -1.00000000 -4.1992616e-16 -6.9931754e-33
vn -1.00000000 -4.2692493e-16 -6.9931754e-33
vn -0.96592583 0.25881905 -1.5512522e-17
vn -0.96592583 0.25881905 -1.5512522e-17
vn 0.0000000e+0 0.0000000e+0 -1.00000000
vn 0.0000000e+0 0.0000000e+0 -1.00000000
vn 0.0000000e+0 0.0000000e+0 -1.00000000
vn -0.86602540 0.50000000 -3.1155952e-17
vn -0.86602540 0.50000000 -3.1155952e-17
vn 0.0000000e+0 0.0000000e+0 -1.00000000
vn 0.0000000e+0 0.0000000e+0 -1.00000000
vn 0.0000000e+0 0.0000000e+0 -1.00000000
vn -0.86602540 0.50000000 -3.1155952e-17
vn -0.86602540 0.50000000 -3.1155952e-17
vn -0.70710678 0.70710678 -4.6079391e-17
vn -0.70710678 0.70710678 -4.6079391e-17
vn 0.0000000e+0 0.0000000e+0 -1.00000000
vn 0.0000000e+0 0.0000000e+0 -1.00000000
vn 0.0000000e+0 0.0000000e+0 -1.00000000
vn -0.50000000 0.86602540 -5.4457462e-17
vn -0.50000000 0.86602540 -5.4457462e-17
vn 0.0000000e+0 0.0000000e+0 -1.00000000
vn 0.0000000e+0 0.0000000e+0 -1.00000000
vn 0.0000000e+0 0.0000000e+0 -1.00000000
vn -0.50000000 0.86602540 -5.4457462e-17
vn -0.50000000 0.86602540 -5.4457462e-17
vn -0.25881905 0.96592583 -6.2835533e-17
vn -0.25881905 0.96592583 -6.2835533e-17
vn 0.0000000e+0 0.0000000e+0 -1.00000000
vn 0.0000000e+0 0.0000000e+0 -1.00000000
vn -6.0189416e-16 1.00000000 -6.0741015e-17
vn -5.9489539e-16 1.00000000 -6.0741015e-17
vn 0.0000000e+0 0.0000000e+0 -1.00000000
vn -5.9489539e-16 1.00000000 -6.0741015e-17
vn -6.0189416e-16 1.00000000 -6.0741015e-17
vn 0.25881905 0.96592583 -5.8646497e-17
vn 0.25881905 0.96592583 -5.8646497e-17
vn 0.0000000e+0 0.0000000e+0 -1.00000000
vn 0.0000000e+0 0.0000000e+0 -1.00000000
vn 0.0000000e+0 0.0000000e+0 -1.00000000
vn 0.50000000 0.86602540 -5.4457462e-17
vn 0.50000000 0.86602540 -5.4457462e-17
vn 0.0000000e+0 0.0000000e+0 -1.00000000
vn 0.0000000e+0 0.0000000e+0 -1.00000000
vn 0.0000000e+0 0.0000000e+0 -1.00000000
vn 0.50000000 0.86602540 -5.4457462e-17
vn 0.50000000 0.86602540 -5.4457462e-17
vn 0.70710678 0.70710678 -4.3984873e-17
vn 0.70710678 0.70710678 -4.3984873e-17
vn 0.0000000e+0 0.0000000e+0 -1.00000000
vn 0.0000000e+0 0.0000000e+0 -1.00000000
vn 0.0000000e+0 0.0000000e+0 -1.00000000
vn 0.86602540 0.50000000 -3.0370508e-17
vn 0.86602540 0.50000000 -3.0370508e-17
vn 0.0000000e+0 0.0000000e+0 -1.00000000
vn 0.0000000e+0 0.0000000e+0 -1.00000000
vn 0.0000000e+0 0.0000000e+0 -1.00000000
vn 0.86602540 0.50000000 -3.0370508e-17
vn 0.86602540 0.50000000 -3.0370508e-17
vn 0.96592583 0.25881905 -1.4988893e-17
vn 0.96592583 0.25881905 -1.4988893e-17
vn 0.0000000e+0 0.0000000e+0 -1.00000000
vn 0.0000000e+0 0.0000000e+0 -1.00000000
vn 0.0000000e+0 0.0000000e+0 -1.00000000
g Arm_ARM_MATL
usemtl ARM_MATL
s 1
f 1//3 13//71 2//9
f 2//8 12//66 3//15
f 3//13 11//59 4//22
f 4//20 10//54 5//27
f 5//25 9//47 6//34
f 6//32 8//42 7//37
f 8//43 6//33 9//46
f 9//48 5//26 10//53
f 10//55 4//21 11//58
f 11//60 3//14 12//65
f 12//67 2//10 13//72
f 13//70 1//2 14//78
f 14//79 24//136 15//83
f 15//84 23//129 16//90
f 16//91 22//124 17//95
f 17//96 21//117 18//102
f 18//103 20//112 19//106
f 20//111 18//101 21//116
f 21//115 17//94 22//123
f 22//122 16//89 23//128
f 23//127 15//82 24//135
f 24//132 14//75 1//1
f 25//143 37//212 48//275
f 26//150 36//206 25//141
f 27//155 35//199 26//148
f 28//162 34//194 27//153
f 29//167 33//187 28//160
f 30//173 32//182 29//165
f 31//174 32//179 30//170
f 33//186 29//166 32//183
f 34//193 28//161 33//188
f 35//198 27//154 34//195
f 36//205 26//149 35//200
f 37//211 25//142 36//207
f 38//217 48//274 37//210
f 39//222 47//267 38//218
f 40//229 46//262 39//223
f 41//234 45//255 40//230
f 42//242 44//251 41//235
f 43//245 44//250 42//241
f 45//257 41//236 44//252
f 46//264 40//231 45//256
f 47//269 39//224 46//263
f 48//276 38//219 47//268
s 2
f 1//4 25//144 24//137
f 2//11 25//145 1//5
f 2//6 27//152 26//146
f 3//16 27//156 2//12
f 4//23 27//157 3//17
f 4//18 29//164 28//158
f 5//28 29//168 4//24
f 6//35 29//169 5//29
f 6//30 31//176 30//171
f 7//38 31//177 6//36
f 8//44 31//178 7//39
f 8//40 33//185 32//180
f 9//49 33//189 8//45
f 10//56 33//190 9//50
f 10//51 35//197 34//191
f 11//61 35//201 10//57
f 12//68 35//202 11//62
f 12//63 37//209 36//203
f 13//73 37//213 12//69
f 14//80 37//214 13//74
f 14//76 39//221 38//215
f 15//85 39//225 14//81
f 16//92 39//226 15//86
f 16//87 41//233 40//227
f 17//97 41//237 16//93
f 18//104 41//238 17//98
f 18//99 43//244 42//239
f 19//107 43//246 18//105
f 20//113 43//247 19//108
f 20//109 45//254 44//248
f 21//118 45//258 20//114
f 22//125 45//259 21//119
f 22//120 47//266 46//260
f 23//130 47//270 22//126
f 24//133 25//139 48//272
f 24//138 47//271 23//131
f 26//147 25//140 2//7
f 28//159 27//151 4//19
f 30//172 29//163 6//31
f 32//181 31//175 8//41
f 34//192 33//184 10//52
f 36//204 35//196 12//64
f 38//216 37//208 14//77
f 40//228 39//220 16//88
f 42//240 41//232 18//100
f 44//249 43//243 20//110
f 46//261 45//253 22//121
f 48//273 47//265 24//134
