# Nv = 28  Nvt = 0  Nvn = 132  Npoly = 44
# Exported from Wings 3D 1.5.2
mtllib Aura_SolarArray.mtl
o Solar Array
#28 vertices, 44 faces
v -2.85277040 -16.54326817 0.12336051
v -2.85277040 -16.54326817 0.17336051
v -2.85277040 -2.60646817 0.12336051
v -2.85277040 -2.60646817 0.17336051
v 2.86716800 -16.54326817 0.12336051
v 2.86716800 -16.54326817 0.17336051
v 2.86716800 -2.60646817 0.12336051
v 2.86716800 -2.60646817 0.17336051
v -1.55365340 -2.60466255 0.12296051
v -1.55365340 -2.60466255 0.17376051
v -1.55365340 -0.97063937 0.12296051
v -1.55365340 -0.97063937 0.17376051
v 1.55190953 -2.60466255 0.12296051
v 1.55190953 -2.60466255 0.17376051
v 1.55190953 -0.97063937 0.12296051
v 1.55190953 -0.97063937 0.17376051
v -0.35242166 -1.5063013e-2 0.12296051
v -0.35242166 -1.5063013e-2 0.17376051
v 0.35067779 -1.5063013e-2 0.17376051
v 0.35067779 -1.5063013e-2 0.12296051
v -1.2700000e-2 -15.98264917 -0.10092869
v -1.2700000e-2 -15.98264917 0.10907131
v -1.2700000e-2 1.7350833e-2 -0.10092869
v -1.2700000e-2 1.7350833e-2 0.10907131
v 1.2700000e-2 -15.98264917 -0.10092869
v 1.2700000e-2 -15.98264917 0.10907131
v 1.2700000e-2 1.7350833e-2 -0.10092869
v 1.2700000e-2 1.7350833e-2 0.10907131
vn 0.0000000e+0 -1.00000000 0.0000000e+0
vn -1.00000000 0.0000000e+0 0.0000000e+0
vn 0.0000000e+0 0.0000000e+0 -1.00000000
vn 0.0000000e+0 -1.00000000 0.0000000e+0
vn 0.0000000e+0 0.0000000e+0 1.00000000
vn -1.00000000 0.0000000e+0 0.0000000e+0
vn 0.0000000e+0 -1.00000000 0.0000000e+0
vn 0.0000000e+0 0.0000000e+0 1.00000000
vn -1.00000000 0.0000000e+0 0.0000000e+0
vn 0.0000000e+0 1.00000000 0.0000000e+0
vn 0.0000000e+0 0.0000000e+0 -1.00000000
vn -1.00000000 0.0000000e+0 0.0000000e+0
vn 0.0000000e+0 1.00000000 0.0000000e+0
vn -1.00000000 0.0000000e+0 0.0000000e+0
vn 0.0000000e+0 0.0000000e+0 -1.00000000
vn -1.00000000 0.0000000e+0 0.0000000e+0
vn 0.0000000e+0 1.00000000 0.0000000e+0
vn 0.0000000e+0 0.0000000e+0 1.00000000
vn 0.0000000e+0 -1.00000000 0.0000000e+0
vn 0.0000000e+0 0.0000000e+0 -1.00000000
vn 1.00000000 0.0000000e+0 0.0000000e+0
vn 1.00000000 0.0000000e+0 0.0000000e+0
vn 0.0000000e+0 -1.00000000 0.0000000e+0
vn 0.0000000e+0 0.0000000e+0 -1.00000000
vn 0.0000000e+0 -1.00000000 0.0000000e+0
vn 0.0000000e+0 0.0000000e+0 1.00000000
vn 1.00000000 0.0000000e+0 0.0000000e+0
vn 0.0000000e+0 1.00000000 0.0000000e+0
vn 0.0000000e+0 0.0000000e+0 -1.00000000
vn 1.00000000 0.0000000e+0 0.0000000e+0
vn 0.0000000e+0 1.00000000 0.0000000e+0
vn 0.0000000e+0 0.0000000e+0 1.00000000
vn 1.00000000 0.0000000e+0 0.0000000e+0
vn 0.0000000e+0 1.00000000 0.0000000e+0
vn 1.00000000 0.0000000e+0 0.0000000e+0
vn 0.0000000e+0 0.0000000e+0 1.00000000
vn 0.0000000e+0 -1.00000000 0.0000000e+0
vn 0.0000000e+0 0.0000000e+0 -1.00000000
vn -1.00000000 0.0000000e+0 0.0000000e+0
vn 0.0000000e+0 -1.00000000 0.0000000e+0
vn -1.00000000 0.0000000e+0 0.0000000e+0
vn 0.0000000e+0 0.0000000e+0 -1.00000000
vn 0.0000000e+0 -1.00000000 0.0000000e+0
vn -1.00000000 0.0000000e+0 0.0000000e+0
vn 0.0000000e+0 0.0000000e+0 1.00000000
vn -1.00000000 0.0000000e+0 0.0000000e+0
vn 0.0000000e+0 0.0000000e+0 -1.00000000
vn 0.0000000e+0 0.0000000e+0 -1.00000000
vn -0.62254396 0.78258483 0.0000000e+0
vn 0.0000000e+0 0.0000000e+0 1.00000000
vn -1.00000000 0.0000000e+0 0.0000000e+0
vn -0.62254396 0.78258483 0.0000000e+0
vn 0.0000000e+0 0.0000000e+0 1.00000000
vn -1.00000000 0.0000000e+0 0.0000000e+0
vn 0.0000000e+0 0.0000000e+0 1.00000000
vn 0.0000000e+0 0.0000000e+0 1.00000000
vn -0.62254396 0.78258483 0.0000000e+0
vn 0.0000000e+0 -1.00000000 0.0000000e+0
vn 0.0000000e+0 0.0000000e+0 -1.00000000
vn 1.00000000 0.0000000e+0 0.0000000e+0
vn 0.0000000e+0 -1.00000000 0.0000000e+0
vn 0.0000000e+0 0.0000000e+0 1.00000000
vn 1.00000000 0.0000000e+0 0.0000000e+0
vn 1.00000000 0.0000000e+0 0.0000000e+0
vn 0.0000000e+0 -1.00000000 0.0000000e+0
vn 0.0000000e+0 0.0000000e+0 1.00000000
vn 0.0000000e+0 0.0000000e+0 -1.00000000
vn 1.00000000 0.0000000e+0 0.0000000e+0
vn 0.62254396 0.78258483 0.0000000e+0
vn 0.0000000e+0 0.0000000e+0 -1.00000000
vn 0.62254396 0.78258483 0.0000000e+0
vn 1.00000000 0.0000000e+0 0.0000000e+0
vn 0.0000000e+0 0.0000000e+0 -1.00000000
vn 0.0000000e+0 0.0000000e+0 -1.00000000
vn 0.0000000e+0 0.0000000e+0 1.00000000
vn 1.00000000 0.0000000e+0 0.0000000e+0
vn 0.62254396 0.78258483 0.0000000e+0
vn 0.0000000e+0 0.0000000e+0 1.00000000
vn 0.0000000e+0 1.00000000 0.0000000e+0
vn -0.62254396 0.78258483 0.0000000e+0
vn 0.0000000e+0 0.0000000e+0 -1.00000000
vn 0.0000000e+0 1.00000000 0.0000000e+0
vn 0.0000000e+0 0.0000000e+0 -1.00000000
vn -0.62254396 0.78258483 0.0000000e+0
vn -0.62254396 0.78258483 0.0000000e+0
vn 0.0000000e+0 0.0000000e+0 1.00000000
vn 0.0000000e+0 1.00000000 0.0000000e+0
vn 0.0000000e+0 1.00000000 0.0000000e+0
vn 0.0000000e+0 0.0000000e+0 1.00000000
vn 0.62254396 0.78258483 0.0000000e+0
vn 0.0000000e+0 1.00000000 0.0000000e+0
vn 0.62254396 0.78258483 0.0000000e+0
vn 0.0000000e+0 0.0000000e+0 1.00000000
vn 0.0000000e+0 1.00000000 0.0000000e+0
vn 0.62254396 0.78258483 0.0000000e+0
vn 0.0000000e+0 0.0000000e+0 -1.00000000
vn 0.0000000e+0 -1.00000000 0.0000000e+0
vn -1.00000000 0.0000000e+0 0.0000000e+0
vn 0.0000000e+0 0.0000000e+0 -1.00000000
vn 0.0000000e+0 -1.00000000 0.0000000e+0
vn 0.0000000e+0 0.0000000e+0 1.00000000
vn -1.00000000 0.0000000e+0 0.0000000e+0
vn 0.0000000e+0 -1.00000000 0.0000000e+0
vn 0.0000000e+0 0.0000000e+0 1.00000000
vn -1.00000000 0.0000000e+0 0.0000000e+0
vn 0.0000000e+0 1.00000000 0.0000000e+0
vn 0.0000000e+0 0.0000000e+0 -1.00000000
vn -1.00000000 0.0000000e+0 0.0000000e+0
vn 0.0000000e+0 1.00000000 0.0000000e+0
vn -1.00000000 0.0000000e+0 0.0000000e+0
vn 0.0000000e+0 0.0000000e+0 -1.00000000
vn -1.00000000 0.0000000e+0 0.0000000e+0
vn 0.0000000e+0 1.00000000 0.0000000e+0
vn 0.0000000e+0 0.0000000e+0 1.00000000
vn 0.0000000e+0 -1.00000000 0.0000000e+0
vn 0.0000000e+0 0.0000000e+0 -1.00000000
vn 1.00000000 0.0000000e+0 0.0000000e+0
vn 1.00000000 0.0000000e+0 0.0000000e+0
vn 0.0000000e+0 -1.00000000 0.0000000e+0
vn 0.0000000e+0 0.0000000e+0 -1.00000000
vn 0.0000000e+0 -1.00000000 0.0000000e+0
vn 0.0000000e+0 0.0000000e+0 1.00000000
vn 1.00000000 0.0000000e+0 0.0000000e+0
vn 0.0000000e+0 1.00000000 0.0000000e+0
vn 0.0000000e+0 0.0000000e+0 -1.00000000
vn 1.00000000 0.0000000e+0 0.0000000e+0
vn 0.0000000e+0 1.00000000 0.0000000e+0
vn 0.0000000e+0 0.0000000e+0 1.00000000
vn 1.00000000 0.0000000e+0 0.0000000e+0
vn 0.0000000e+0 1.00000000 0.0000000e+0
vn 1.00000000 0.0000000e+0 0.0000000e+0
vn 0.0000000e+0 0.0000000e+0 1.00000000
g Solar Array_FLAT_BLACK
usemtl FLAT_BLACK
s 1
f 1//1 5//23 2//7
f 2//4 5//19 6//25
f 3//10 8//31 7//28
f 4//17 8//34 3//13
s 2
f 2//9 3//14 1//2
f 4//16 3//12 2//6
f 5//22 8//35 6//27
f 7//30 8//33 5//21
g Solar Array_FLAT_WHITE
usemtl FLAT_WHITE
s 1
f 22//105 23//110 21//98
f 24//112 23//108 22//102
f 25//118 28//131 26//123
f 27//126 28//129 25//117
s 2
f 21//97 25//119 22//103
f 22//100 25//115 26//121
f 23//106 28//127 27//124
f 24//113 28//130 23//109
s 3
f 3//15 5//24 1//3
f 7//29 5//20 3//11
f 22//104 28//132 24//114
f 23//111 25//120 21//99
f 26//122 28//128 22//101
f 27//125 25//116 23//107
g Solar Array_GOLD_KAPTON
usemtl GOLD_KAPTON
s 1
f 9//39 12//51 11//46
f 10//44 12//54 9//41
f 11//48 17//83 15//74
f 13//60 15//72 14//64
f 14//63 15//68 16//76
f 16//78 19//93 12//56
f 18//86 12//53 19//89
f 20//96 15//70 17//81
s 2
f 9//40 14//65 10//43
f 12//57 17//84 11//49
f 13//58 14//61 9//37
f 15//71 19//92 16//77
f 17//80 12//52 18//85
f 19//90 15//69 20//95
s 3
f 9//38 15//67 13//59
f 10//45 14//66 12//55
f 11//47 15//73 9//42
f 12//50 14//62 16//75
f 18//87 19//91 17//82
f 20//94 17//79 19//88
g Solar Array_SOLAR_CELL
usemtl SOLAR_CELL
s 3
f 2//8 8//36 4//18
f 6//26 8//32 2//5
