# Nv = 8  Nvt = 0  Nvn = 36  Npoly = 12
# Exported from Wings 3D 2.1.5
mtllib 42.mtl
o Cube1
#8 vertices, 12 faces
v -1.00000000 -1.00000000 0.0000000e+0
v -1.00000000 -1.00000000 1.00000000
v -1.00000000 1.00000000 0.0000000e+0
v -1.00000000 1.00000000 1.00000000
v 1.00000000 -1.00000000 0.0000000e+0
v 1.00000000 -1.00000000 1.00000000
v 1.00000000 1.00000000 0.0000000e+0
v 1.00000000 1.00000000 1.00000000
vn 0.0000000e+0 -1.00000000 0.0000000e+0
vn -1.00000000 0.0000000e+0 0.0000000e+0
vn 0.0000000e+0 0.0000000e+0 -1.00000000
vn 0.0000000e+0 -1.00000000 0.0000000e+0
vn 0.0000000e+0 0.0000000e+0 1.00000000
vn -1.00000000 0.0000000e+0 0.0000000e+0
vn 0.0000000e+0 -1.00000000 0.0000000e+0
vn 0.0000000e+0 0.0000000e+0 1.00000000
vn -1.00000000 0.0000000e+0 0.0000000e+0
vn 0.0000000e+0 1.00000000 0.0000000e+0
vn 0.0000000e+0 0.0000000e+0 -1.00000000
vn -1.00000000 0.0000000e+0 0.0000000e+0
vn 0.0000000e+0 1.00000000 0.0000000e+0
vn -1.00000000 0.0000000e+0 0.0000000e+0
vn 0.0000000e+0 0.0000000e+0 -1.00000000
vn -1.00000000 0.0000000e+0 0.0000000e+0
vn 0.0000000e+0 1.00000000 0.0000000e+0
vn 0.0000000e+0 0.0000000e+0 1.00000000
vn 0.0000000e+0 -1.00000000 0.0000000e+0
vn 0.0000000e+0 0.0000000e+0 -1.00000000
vn 1.00000000 0.0000000e+0 0.0000000e+0
vn 1.00000000 0.0000000e+0 0.0000000e+0
vn 0.0000000e+0 -1.00000000 0.0000000e+0
vn 0.0000000e+0 0.0000000e+0 -1.00000000
vn 0.0000000e+0 -1.00000000 0.0000000e+0
vn 0.0000000e+0 0.0000000e+0 1.00000000
vn 1.00000000 0.0000000e+0 0.0000000e+0
vn 0.0000000e+0 1.00000000 0.0000000e+0
vn 0.0000000e+0 0.0000000e+0 -1.00000000
vn 1.00000000 0.0000000e+0 0.0000000e+0
vn 0.0000000e+0 1.00000000 0.0000000e+0
vn 0.0000000e+0 0.0000000e+0 1.00000000
vn 1.00000000 0.0000000e+0 0.0000000e+0
vn 0.0000000e+0 1.00000000 0.0000000e+0
vn 1.00000000 0.0000000e+0 0.0000000e+0
vn 0.0000000e+0 0.0000000e+0 1.00000000
g Cube1_GOLD_KAPTON
usemtl GOLD_KAPTON
s 1
f 1//1 5//23 2//7
f 2//4 5//19 6//25
f 3//10 8//31 7//28
f 4//17 8//34 3//13
s 2
f 2//9 3//14 1//2
f 4//16 3//12 2//6
f 5//22 8//35 6//27
f 7//30 8//33 5//21
s 3
f 2//8 8//36 4//18
f 3//15 5//24 1//3
f 6//26 8//32 2//5
f 7//29 5//20 3//11
