# Nv = 74  Nvt = 0  Nvn = 228  Npoly = 144
# Exported from Wings 3D 2.1.5
mtllib 42.mtl
o Cube1
#74 vertices, 144 faces
v -5.0000000e-2 -5.0000000e-2 -5.0000000e-2
v -5.0000000e-2 -5.0000000e-2 5.0000000e-2
v -5.0000000e-2 5.0000000e-2 -5.0000000e-2
v -5.0000000e-2 5.0000000e-2 5.0000000e-2
v 5.0000000e-2 -5.0000000e-2 -5.0000000e-2
v 5.0000000e-2 -5.0000000e-2 5.0000000e-2
v 5.0000000e-2 5.0000000e-2 -5.0000000e-2
v 5.0000000e-2 5.0000000e-2 5.0000000e-2
v -5.0000000e-2 -5.0000000e-2 1.6700000e-2
v -5.0000000e-2 5.0000000e-2 1.6700000e-2
v 5.0000000e-2 -5.0000000e-2 1.6700000e-2
v 5.0000000e-2 5.0000000e-2 1.6700000e-2
v -5.0000000e-2 -1.6666667e-2 5.0000000e-2
v -5.0000000e-2 1.6666667e-2 5.0000000e-2
v -1.6666667e-2 -5.0000000e-2 5.0000000e-2
v 1.6666667e-2 -5.0000000e-2 5.0000000e-2
v -1.6666667e-2 5.0000000e-2 5.0000000e-2
v 1.6666667e-2 5.0000000e-2 5.0000000e-2
v 5.0000000e-2 -1.6666667e-2 5.0000000e-2
v 5.0000000e-2 1.6666667e-2 5.0000000e-2
v -5.0000000e-2 -1.6666667e-2 -5.0000000e-2
v -5.0000000e-2 1.6666667e-2 -5.0000000e-2
v -1.6666667e-2 -5.0000000e-2 -5.0000000e-2
v 1.6666667e-2 -5.0000000e-2 -5.0000000e-2
v -1.6666667e-2 5.0000000e-2 -5.0000000e-2
v 1.6666667e-2 5.0000000e-2 -5.0000000e-2
v 1.6666667e-2 5.0000000e-2 -4.5832500e-2
v -1.6666667e-2 5.0000000e-2 -4.5832500e-2
v -4.5832500e-2 5.0000000e-2 -4.5832500e-2
v -4.5832500e-2 5.0000000e-2 1.4972544e-2
v -1.4941653e-2 5.0000000e-2 4.5832500e-2
v 1.4941653e-2 5.0000000e-2 4.5832500e-2
v 4.5832500e-2 5.0000000e-2 1.4972544e-2
v 4.5832500e-2 5.0000000e-2 -4.5832500e-2
v 4.6000000e-2 -1.5009812e-2 5.0000000e-2
v 4.6000000e-2 1.5009812e-2 5.0000000e-2
v 1.5009812e-2 4.6000000e-2 5.0000000e-2
v -1.6666667e-2 4.6000000e-2 5.0000000e-2
v -4.6000000e-2 4.6000000e-2 5.0000000e-2
v -4.6000000e-2 1.6666667e-2 5.0000000e-2
v -4.6000000e-2 -1.6666667e-2 5.0000000e-2
v -4.6000000e-2 -4.6000000e-2 5.0000000e-2
v -1.6666667e-2 -4.6000000e-2 5.0000000e-2
v 1.5009812e-2 -4.6000000e-2 5.0000000e-2
v -5.0000000e-2 4.5832500e-2 1.4972544e-2
v -5.0000000e-2 4.5832500e-2 -4.5832500e-2
v -5.0000000e-2 1.6666667e-2 -4.5832500e-2
v -5.0000000e-2 -1.6666667e-2 -4.5832500e-2
v -5.0000000e-2 -4.5832500e-2 -4.5832500e-2
v -5.0000000e-2 -4.5832500e-2 1.4972544e-2
v -5.0000000e-2 -1.4941653e-2 4.5832500e-2
v -5.0000000e-2 1.4941653e-2 4.5832500e-2
v 1.6666667e-2 4.5832500e-2 -5.0000000e-2
v 4.5832500e-2 4.5832500e-2 -5.0000000e-2
v 4.5832500e-2 -4.5832500e-2 -5.0000000e-2
v 1.6666667e-2 -4.5832500e-2 -5.0000000e-2
v -1.4940432e-2 -4.5832500e-2 -5.0000000e-2
v -4.5832500e-2 -1.4940432e-2 -5.0000000e-2
v -4.5832500e-2 1.4940432e-2 -5.0000000e-2
v -1.4940432e-2 4.5832500e-2 -5.0000000e-2
v 5.0000000e-2 -4.5832500e-2 1.4972544e-2
v 5.0000000e-2 -4.5832500e-2 -4.5832500e-2
v 5.0000000e-2 4.5832500e-2 -4.5832500e-2
v 5.0000000e-2 4.5832500e-2 1.4972544e-2
v 5.0000000e-2 1.4941653e-2 4.5832500e-2
v 5.0000000e-2 -1.4941653e-2 4.5832500e-2
v 4.5832500e-2 -5.0000000e-2 1.4972544e-2
v 1.4941653e-2 -5.0000000e-2 4.5832500e-2
v -1.4941653e-2 -5.0000000e-2 4.5832500e-2
v -4.5832500e-2 -5.0000000e-2 1.4972544e-2
v -4.5832500e-2 -5.0000000e-2 -4.5832500e-2
v -1.6666667e-2 -5.0000000e-2 -4.5832500e-2
v 1.6666667e-2 -5.0000000e-2 -4.5832500e-2
v 4.5832500e-2 -5.0000000e-2 -4.5832500e-2
vn 0.0000000e+0 1.00000000 5.7100465e-16
vn 0.0000000e+0 1.00000000 2.3409056e-18
vn 0.0000000e+0 1.00000000 7.8046947e-16
vn 0.0000000e+0 1.00000000 -3.6810084e-16
vn 0.0000000e+0 1.00000000 -8.3099447e-16
vn 0.0000000e+0 1.00000000 -5.7339080e-17
vn 0.0000000e+0 1.00000000 0.0000000e+0
vn 0.0000000e+0 1.00000000 1.1893208e-15
vn 1.7359373e-16 0.0000000e+0 1.00000000
vn 5.7280275e-17 0.0000000e+0 1.00000000
vn -1.4300032e-17 0.0000000e+0 1.00000000
vn 0.0000000e+0 0.0000000e+0 1.00000000
vn 0.0000000e+0 0.0000000e+0 1.00000000
vn -4.2650274e-17 0.0000000e+0 1.00000000
vn -1.4300032e-17 0.0000000e+0 1.00000000
vn 6.5052130e-16 0.0000000e+0 1.00000000
vn 3.8421752e-17 0.0000000e+0 1.00000000
vn -3.6721914e-16 0.0000000e+0 1.00000000
vn -1.00000000 -5.1696311e-16 0.0000000e+0
vn -1.00000000 0.0000000e+0 0.0000000e+0
vn -1.00000000 -4.6862268e-18 0.0000000e+0
vn -1.00000000 0.0000000e+0 0.0000000e+0
vn -1.00000000 6.2406354e-16 0.0000000e+0
vn -1.00000000 2.2783095e-17 0.0000000e+0
vn -1.00000000 1.8985912e-17 0.0000000e+0
vn -1.00000000 5.5678603e-16 0.0000000e+0
vn 0.0000000e+0 0.0000000e+0 -1.00000000
vn 0.0000000e+0 0.0000000e+0 -1.00000000
vn 0.0000000e+0 0.0000000e+0 -1.00000000
vn 0.0000000e+0 0.0000000e+0 -1.00000000
vn 5.0702023e-16 0.0000000e+0 -1.00000000
vn 9.1425812e-16 0.0000000e+0 -1.00000000
vn 1.0029474e-15 0.0000000e+0 -1.00000000
vn 5.0702023e-16 0.0000000e+0 -1.00000000
vn 1.00000000 1.1916178e-16 0.0000000e+0
vn 1.00000000 6.2406354e-16 0.0000000e+0
vn 1.00000000 0.0000000e+0 0.0000000e+0
vn 1.00000000 -4.2081245e-16 0.0000000e+0
vn 1.00000000 5.9580891e-16 0.0000000e+0
vn 1.00000000 1.1916178e-16 0.0000000e+0
vn 0.0000000e+0 -1.00000000 -3.9951618e-16
vn 0.0000000e+0 -1.00000000 -4.6886110e-16
vn 0.0000000e+0 -1.00000000 -8.3099447e-16
vn 0.0000000e+0 -1.00000000 -4.4172101e-16
vn 0.0000000e+0 -1.00000000 6.2437558e-16
vn 0.0000000e+0 -1.00000000 2.0637059e-17
vn 0.0000000e+0 -1.00000000 6.3032198e-16
vn 0.0000000e+0 -1.00000000 1.1893208e-15
vn 0.0000000e+0 0.0000000e+0 -1.00000000
vn -1.00000000 1.5601589e-15 0.0000000e+0
vn -1.00000000 1.5601589e-15 0.0000000e+0
vn 0.0000000e+0 -1.00000000 1.5609389e-15
vn 0.0000000e+0 -1.00000000 1.5609389e-15
vn -1.00000000 0.0000000e+0 0.0000000e+0
vn 0.0000000e+0 -1.00000000 0.0000000e+0
vn 1.6263033e-15 0.0000000e+0 1.00000000
vn 1.6263033e-15 0.0000000e+0 1.00000000
vn 0.0000000e+0 0.0000000e+0 -1.00000000
vn 0.0000000e+0 1.00000000 1.0406260e-15
vn 0.0000000e+0 1.00000000 1.0406260e-15
vn -1.00000000 -7.8007943e-16 0.0000000e+0
vn -1.00000000 -7.8007943e-16 0.0000000e+0
vn -1.00000000 -7.8007943e-16 0.0000000e+0
vn -1.00000000 -7.8007943e-16 0.0000000e+0
vn 0.0000000e+0 1.00000000 1.0406260e-15
vn -1.00000000 0.0000000e+0 0.0000000e+0
vn 0.0000000e+0 1.00000000 0.0000000e+0
vn 0.0000000e+0 0.0000000e+0 1.00000000
vn 0.0000000e+0 0.0000000e+0 1.00000000
vn 0.0000000e+0 0.0000000e+0 -1.00000000
vn 0.0000000e+0 0.0000000e+0 -1.00000000
vn 1.00000000 1.0401059e-15 0.0000000e+0
vn 1.00000000 1.0401059e-15 0.0000000e+0
vn 0.0000000e+0 -1.00000000 8.9199059e-16
vn 0.0000000e+0 -1.00000000 8.9199059e-16
vn 0.0000000e+0 0.0000000e+0 -1.00000000
vn 0.0000000e+0 -1.00000000 8.9199059e-16
vn 0.0000000e+0 0.0000000e+0 -1.00000000
vn 1.00000000 1.0401059e-15 0.0000000e+0
vn 0.0000000e+0 -1.00000000 8.9199059e-16
vn 1.00000000 0.0000000e+0 0.0000000e+0
vn 0.0000000e+0 -1.00000000 0.0000000e+0
vn 0.0000000e+0 0.0000000e+0 1.00000000
vn 0.0000000e+0 1.00000000 8.9199059e-16
vn 0.0000000e+0 1.00000000 8.9199059e-16
vn 0.0000000e+0 0.0000000e+0 -1.00000000
vn 0.0000000e+0 0.0000000e+0 -1.00000000
vn 1.00000000 -1.0401059e-15 0.0000000e+0
vn 1.00000000 -1.0401059e-15 0.0000000e+0
vn 1.00000000 -1.0401059e-15 0.0000000e+0
vn 0.0000000e+0 1.00000000 8.9199059e-16
vn 0.0000000e+0 1.00000000 8.9199059e-16
vn 1.00000000 0.0000000e+0 0.0000000e+0
vn 0.0000000e+0 1.00000000 0.0000000e+0
vn 0.0000000e+0 0.0000000e+0 1.00000000
vn -1.00000000 6.2406354e-16 0.0000000e+0
vn 0.0000000e+0 -1.00000000 -5.5215126e-16
vn -1.00000000 6.2406354e-16 0.0000000e+0
vn -1.00000000 6.2406354e-16 0.0000000e+0
vn 0.0000000e+0 -1.00000000 -5.5215126e-16
vn 0.0000000e+0 -1.00000000 -5.5215126e-16
vn 0.0000000e+0 -1.00000000 -5.5215126e-16
vn -1.00000000 6.2406354e-16 0.0000000e+0
vn -1.00000000 6.2406354e-16 0.0000000e+0
vn -1.00000000 -1.7763076e-15 0.0000000e+0
vn 0.0000000e+0 1.00000000 -7.3620168e-16
vn 0.0000000e+0 1.00000000 -7.3620168e-16
vn 0.0000000e+0 1.00000000 -7.3620168e-16
vn -1.00000000 -1.7763076e-15 0.0000000e+0
vn -1.00000000 -1.7763076e-15 0.0000000e+0
vn 1.00000000 7.4322533e-16 0.0000000e+0
vn 0.0000000e+0 -1.00000000 -5.9580891e-16
vn 1.00000000 7.4322533e-16 0.0000000e+0
vn 1.00000000 7.4322533e-16 0.0000000e+0
vn 0.0000000e+0 -1.00000000 -5.9580891e-16
vn 0.0000000e+0 -1.00000000 -5.9580891e-16
vn 1.00000000 7.4322533e-16 0.0000000e+0
vn 0.0000000e+0 -1.00000000 -5.9580891e-16
vn 1.00000000 7.4322533e-16 0.0000000e+0
vn 1.00000000 -1.7763076e-15 0.0000000e+0
vn 0.0000000e+0 1.00000000 0.0000000e+0
vn 0.0000000e+0 1.00000000 0.0000000e+0
vn 0.0000000e+0 1.00000000 0.0000000e+0
vn 1.00000000 -1.7763076e-15 0.0000000e+0
vn 1.00000000 -1.7763076e-15 0.0000000e+0
vn -1.00000000 0.0000000e+0 0.0000000e+0
vn 1.0842022e-15 0.0000000e+0 1.00000000
vn 1.0842022e-15 0.0000000e+0 1.00000000
vn -1.00000000 0.0000000e+0 0.0000000e+0
vn -1.00000000 0.0000000e+0 0.0000000e+0
vn 1.0842022e-15 0.0000000e+0 1.00000000
vn -1.00000000 3.4926120e-17 0.0000000e+0
vn 0.0000000e+0 0.0000000e+0 1.00000000
vn 0.0000000e+0 0.0000000e+0 1.00000000
vn -1.00000000 3.4926120e-17 0.0000000e+0
vn -1.00000000 3.4926120e-17 0.0000000e+0
vn -1.00000000 3.4926120e-17 0.0000000e+0
vn -1.00000000 3.4926120e-17 0.0000000e+0
vn 0.0000000e+0 0.0000000e+0 1.00000000
vn 0.0000000e+0 0.0000000e+0 1.00000000
vn 0.0000000e+0 -1.00000000 -5.1380517e-16
vn 0.0000000e+0 0.0000000e+0 1.00000000
vn 0.0000000e+0 0.0000000e+0 1.00000000
vn 0.0000000e+0 -1.00000000 -5.1380517e-16
vn 0.0000000e+0 -1.00000000 -5.1380517e-16
vn 0.0000000e+0 -1.00000000 -5.1380517e-16
vn 0.0000000e+0 0.0000000e+0 1.00000000
vn 0.0000000e+0 0.0000000e+0 1.00000000
vn 0.0000000e+0 -1.00000000 -5.1380517e-16
vn 0.0000000e+0 -1.00000000 1.0406260e-15
vn -7.6664671e-16 0.0000000e+0 1.00000000
vn -7.6664671e-16 0.0000000e+0 1.00000000
vn -7.6664671e-16 0.0000000e+0 1.00000000
vn 0.0000000e+0 -1.00000000 1.0406260e-15
vn 0.0000000e+0 -1.00000000 1.0406260e-15
vn 0.0000000e+0 1.00000000 -5.1380517e-16
vn 0.0000000e+0 1.00000000 -5.1380517e-16
vn 0.0000000e+0 1.00000000 -5.1380517e-16
vn 0.0000000e+0 0.0000000e+0 1.00000000
vn 0.0000000e+0 0.0000000e+0 1.00000000
vn 0.0000000e+0 1.00000000 -5.1380517e-16
vn 0.0000000e+0 0.0000000e+0 1.00000000
vn 0.0000000e+0 0.0000000e+0 1.00000000
vn 0.0000000e+0 1.00000000 -5.1380517e-16
vn 0.0000000e+0 1.00000000 7.8046947e-16
vn 0.0000000e+0 0.0000000e+0 1.00000000
vn 0.0000000e+0 1.00000000 7.8046947e-16
vn 0.0000000e+0 1.00000000 7.8046947e-16
vn 0.0000000e+0 0.0000000e+0 1.00000000
vn 0.0000000e+0 0.0000000e+0 1.00000000
vn 0.0000000e+0 1.00000000 7.8046947e-16
vn 1.00000000 0.0000000e+0 0.0000000e+0
vn -3.6721914e-16 0.0000000e+0 1.00000000
vn -3.6721914e-16 0.0000000e+0 1.00000000
vn -3.6721914e-16 0.0000000e+0 1.00000000
vn 1.00000000 0.0000000e+0 0.0000000e+0
vn 1.00000000 0.0000000e+0 0.0000000e+0
vn -3.6721914e-16 0.0000000e+0 1.00000000
vn -3.6721914e-16 0.0000000e+0 1.00000000
vn 1.00000000 3.4926120e-17 0.0000000e+0
vn 0.0000000e+0 0.0000000e+0 1.00000000
vn 0.0000000e+0 0.0000000e+0 1.00000000
vn 0.0000000e+0 0.0000000e+0 1.00000000
vn 1.00000000 3.4926120e-17 0.0000000e+0
vn 1.00000000 3.4926120e-17 0.0000000e+0
vn 0.0000000e+0 0.0000000e+0 1.00000000
vn 1.00000000 3.4926120e-17 0.0000000e+0
vn 1.00000000 3.4926120e-17 0.0000000e+0
vn 3.1877057e-16 0.0000000e+0 -1.00000000
vn -1.00000000 0.0000000e+0 0.0000000e+0
vn -1.00000000 0.0000000e+0 0.0000000e+0
vn 3.1877057e-16 0.0000000e+0 -1.00000000
vn 3.1877057e-16 0.0000000e+0 -1.00000000
vn -1.00000000 0.0000000e+0 0.0000000e+0
vn -1.00000000 0.0000000e+0 0.0000000e+0
vn 3.1877057e-16 0.0000000e+0 -1.00000000
vn 0.0000000e+0 0.0000000e+0 -1.00000000
vn -1.00000000 0.0000000e+0 0.0000000e+0
vn -1.00000000 0.0000000e+0 0.0000000e+0
vn 0.0000000e+0 0.0000000e+0 -1.00000000
vn 0.0000000e+0 0.0000000e+0 -1.00000000
vn 3.4889829e-17 0.0000000e+0 -1.00000000
vn 3.4889829e-17 0.0000000e+0 -1.00000000
vn 3.4889829e-17 0.0000000e+0 -1.00000000
vn 0.0000000e+0 -1.00000000 7.8046947e-16
vn 0.0000000e+0 -1.00000000 7.8046947e-16
vn 0.0000000e+0 -1.00000000 7.8046947e-16
vn 0.0000000e+0 -1.00000000 7.8046947e-16
vn 3.4889829e-17 0.0000000e+0 -1.00000000
vn 3.4889829e-17 0.0000000e+0 -1.00000000
vn 0.0000000e+0 0.0000000e+0 -1.00000000
vn 0.0000000e+0 0.0000000e+0 -1.00000000
vn 0.0000000e+0 -1.00000000 0.0000000e+0
vn 0.0000000e+0 -1.00000000 0.0000000e+0
vn 4.7639003e-16 0.0000000e+0 -1.00000000
vn 0.0000000e+0 1.00000000 1.0406260e-15
vn 0.0000000e+0 1.00000000 1.0406260e-15
vn 4.7639003e-16 0.0000000e+0 -1.00000000
vn 4.7639003e-16 0.0000000e+0 -1.00000000
vn 4.7639003e-16 0.0000000e+0 -1.00000000
vn 4.7639003e-16 0.0000000e+0 -1.00000000
vn 0.0000000e+0 1.00000000 1.0406260e-15
vn 0.0000000e+0 1.00000000 0.0000000e+0
vn 0.0000000e+0 1.00000000 0.0000000e+0
vn 0.0000000e+0 0.0000000e+0 -1.00000000
vn 0.0000000e+0 0.0000000e+0 -1.00000000
vn 0.0000000e+0 1.00000000 0.0000000e+0
vn 0.0000000e+0 0.0000000e+0 -1.00000000
g Cube1_CUBE_BLUE
usemtl CUBE_BLUE
s 1
f 45//19 47//21 52//26
f 46//20 47//21 45//19
f 48//22 50//24 47//21
f 49//23 50//24 48//22
f 51//25 47//21 50//24
f 52//26 47//21 51//25
f 62//36 64//38 61//35
f 63//37 64//38 62//36
f 65//39 61//35 64//38
f 66//40 61//35 65//39
s 2
f 28//2 32//6 27//1
f 29//3 30//4 28//2
f 31//5 28//2 30//4
f 32//6 28//2 31//5
f 33//7 27//1 32//6
f 34//8 27//1 33//7
f 68//42 72//46 67//41
f 69//43 72//46 68//42
f 70//44 72//46 69//43
f 71//45 72//46 70//44
f 73//47 67//41 72//46
f 74//48 67//41 73//47
s 3
f 36//10 41//15 43//17
f 36//10 43//17 35//9
f 37//11 41//15 36//10
f 38//12 40//14 37//11
f 39//13 40//14 38//12
f 41//15 37//11 40//14
f 42//16 43//17 41//15
f 44//18 35//9 43//17
f 53//27 56//30 60//34
f 54//28 55//29 53//27
f 56//30 53//27 55//29
f 57//31 60//34 56//30
f 58//32 59//33 57//31
f 60//34 57//31 59//33
g Cube1_CUBE_ORANGE
usemtl CUBE_ORANGE
s 1
f 1//50 49//23 21//191
f 3//61 45//19 10//109
f 5//72 62//36 11//113
f 6//81 11//111 19//172
f 7//88 63//37 5//73
f 8//93 20//180 12//120
f 9//98 49//23 1//51
f 10//105 14//132 4//66
f 10//110 45//19 14//136
f 11//114 66//40 19//177
f 12//124 64//38 7//89
f 13//126 9//96 2//54
f 13//129 51//25 9//99
f 14//135 51//25 13//130
f 19//176 66//40 20//185
f 20//184 64//38 12//125
f 21//190 47//21 22//199
f 22//198 47//21 3//62
f 45//19 3//63 46//20
f 46//20 3//64 47//21
f 47//21 21//194 48//22
f 48//22 21//195 49//23
f 49//23 9//104 50//24
f 50//24 9//103 51//25
f 51//25 14//137 52//26
f 52//26 14//138 45//19
f 61//35 11//119 62//36
f 61//35 66//40 11//117
f 62//36 5//79 63//37
f 63//37 7//90 64//38
f 64//38 20//187 65//39
f 65//39 20//188 66//40
s 2
f 1//52 71//45 9//101
f 2//55 9//97 15//141
f 3//59 29//3 25//217
f 5//74 73//47 24//214
f 6//82 16//150 11//112
f 7//84 33//7 12//123
f 9//100 70//44 15//145
f 10//107 30//4 3//60
f 11//116 67//41 5//75
f 12//121 18//165 8//94
f 12//122 33//7 18//168
f 15//144 68//42 16//155
f 16//154 68//42 11//115
f 17//156 10//106 4//67
f 17//157 30//4 10//108
f 18//167 32//6 17//158
f 23//205 71//45 1//53
f 24//213 73//47 23//206
f 25//216 28//2 26//223
f 26//224 27//1 7//85
f 27//1 26//227 28//2
f 28//2 25//222 29//3
f 29//3 3//65 30//4
f 30//4 17//161 31//5
f 31//5 17//164 32//6
f 32//6 18//171 33//7
f 33//7 7//91 34//8
f 34//8 7//92 27//1
f 67//41 11//118 68//42
f 68//42 15//146 69//43
f 69//43 15//149 70//44
f 70//44 9//102 71//45
f 71//45 23//208 72//46
f 72//46 23//207 73//47
f 73//47 5//77 74//48
f 74//48 5//80 67//41
s 3
f 2//56 42//16 13//128
f 4//68 39//13 17//160
f 5//70 54//28 7//87
f 7//86 54//28 26//225
f 13//127 41//15 14//134
f 14//133 39//13 4//69
f 15//142 42//16 2//57
f 16//152 44//18 15//143
f 17//159 37//11 18//170
f 18//166 20//181 8//95
f 18//169 37//11 20//183
f 19//173 16//151 6//83
f 19//175 44//18 16//153
f 20//182 36//10 19//174
f 21//189 23//202 1//49
f 21//192 58//32 23//204
f 22//200 59//33 21//193
f 23//203 56//30 24//212
f 24//211 56//30 5//71
f 25//215 22//197 3//58
f 25//218 59//33 22//201
f 26//226 53//27 25//219
f 35//9 19//179 36//10
f 35//9 44//18 19//178
f 36//10 20//186 37//11
f 37//11 17//163 38//12
f 38//12 17//162 39//13
f 39//13 14//140 40//14
f 40//14 14//139 41//15
f 41//15 13//131 42//16
f 42//16 15//147 43//17
f 43//17 15//148 44//18
f 53//27 26//228 54//28
f 54//28 5//76 55//29
f 55//29 5//78 56//30
f 56//30 23//210 57//31
f 57//31 23//209 58//32
f 58//32 21//196 59//33
f 59//33 25//220 60//34
f 60//34 25//221 53//27
