# Nv = 8  Nvt = 4  Nvn = 36  Npoly = 12
# Exported from Wings 3D 0.99.04a
mtllib ISS.mtl
o ISS_SM_SolarPanel
#8 vertices, 12 faces
v -1.45000000 -1.7763568e-15 2.0000000e-2
v -1.45000000 14.52000000 2.0000000e-2
v 1.45000000 14.52000000 2.0000000e-2
v 1.45000000 -1.7763568e-15 2.0000000e-2
v -1.45000000 -1.7763568e-15 -2.0000000e-2
v -1.45000000 14.52000000 -2.0000000e-2
v 1.45000000 14.52000000 -2.0000000e-2
v 1.45000000 -1.7763568e-15 -2.0000000e-2
vt 4.5654729e-3 -1.93067556
vt 4.5654729e-3 2.92862444
vt 0.97508682 -1.93067556
vt 0.97508682 2.92862444
vn 0.0000000e+0 0.0000000e+0 1.00000000
vn 0.0000000e+0 -1.00000000 0.0000000e+0
vn -1.00000000 0.0000000e+0 0.0000000e+0
vn 0.0000000e+0 0.0000000e+0 1.00000000
vn 0.0000000e+0 1.00000000 0.0000000e+0
vn -1.00000000 0.0000000e+0 0.0000000e+0
vn 0.0000000e+0 0.0000000e+0 1.00000000
vn 0.0000000e+0 1.00000000 0.0000000e+0
vn -1.00000000 0.0000000e+0 0.0000000e+0
vn 0.0000000e+0 0.0000000e+0 1.00000000
vn 1.00000000 0.0000000e+0 0.0000000e+0
vn 0.0000000e+0 1.00000000 0.0000000e+0
vn 0.0000000e+0 0.0000000e+0 1.00000000
vn 1.00000000 0.0000000e+0 0.0000000e+0
vn 0.0000000e+0 -1.00000000 0.0000000e+0
vn 0.0000000e+0 0.0000000e+0 1.00000000
vn 1.00000000 0.0000000e+0 0.0000000e+0
vn 0.0000000e+0 -1.00000000 0.0000000e+0
vn 0.0000000e+0 -1.00000000 0.0000000e+0
vn 0.0000000e+0 0.0000000e+0 -1.00000000
vn -1.00000000 0.0000000e+0 0.0000000e+0
vn 0.0000000e+0 0.0000000e+0 -1.00000000
vn 0.0000000e+0 -1.00000000 0.0000000e+0
vn -1.00000000 0.0000000e+0 0.0000000e+0
vn 0.0000000e+0 1.00000000 0.0000000e+0
vn -1.00000000 0.0000000e+0 0.0000000e+0
vn 0.0000000e+0 0.0000000e+0 -1.00000000
vn 1.00000000 0.0000000e+0 0.0000000e+0
vn 0.0000000e+0 1.00000000 0.0000000e+0
vn 0.0000000e+0 0.0000000e+0 -1.00000000
vn 1.00000000 0.0000000e+0 0.0000000e+0
vn 0.0000000e+0 0.0000000e+0 -1.00000000
vn 0.0000000e+0 1.00000000 0.0000000e+0
vn 1.00000000 0.0000000e+0 0.0000000e+0
vn 0.0000000e+0 -1.00000000 0.0000000e+0
vn 0.0000000e+0 0.0000000e+0 -1.00000000
g ISS_SM_SolarPanel_FLAT_BLACK
usemtl FLAT_BLACK
f 1//2 5//23 4//18
f 2//9 5//24 1//3
f 2//5 7//29 6//25
f 3//12 7//33 2//8
f 4//15 5//19 8//35
f 4//17 7//31 3//11
f 6//26 5//21 2//6
f 8//34 7//28 4//14
g ISS_SM_SolarPanel_FLAT_WHITE
usemtl FLAT_WHITE
f 5//20 7//30 8//36
f 6//27 7//32 5//22
g ISS_SM_SolarPanel_SOLAR_CELL
usemtl SOLAR_CELL
f 1/1/1 4/3/16 2/2/7
f 2/2/4 4/3/13 3/4/10
