# Nv = 40  Nvt = 0  Nvn = 216  Npoly = 72
# Exported from Wings 3D 1.5.2
mtllib MDLSat_MainBody.mtl
o Cube2
#40 vertices, 72 faces
v -1.50000000 -1.50000000 0.0000000e+0
v -1.50000000 -1.50000000 1.00000000
v -1.50000000 1.50000000 0.0000000e+0
v -1.50000000 1.50000000 1.00000000
v 1.50000000 -1.50000000 0.0000000e+0
v 1.50000000 -1.50000000 1.00000000
v 1.50000000 1.50000000 0.0000000e+0
v 1.50000000 1.50000000 1.00000000
v 1.00000000 8.8379063e-17 4.00000000
v 0.92387953 -0.38268343 4.00000000
v 0.70710678 -0.70710678 4.00000000
v 0.38268343 -0.92387953 4.00000000
v 6.1232340e-17 -1.00000000 4.00000000
v -0.38268343 -0.92387953 4.00000000
v -0.70710678 -0.70710678 4.00000000
v -0.92387953 -0.38268343 4.00000000
v -1.00000000 -3.4085617e-17 4.00000000
v -0.92387953 0.38268343 4.00000000
v -0.70710678 0.70710678 4.00000000
v -0.38268343 0.92387953 4.00000000
v -1.8369702e-16 1.00000000 4.00000000
v 0.38268343 0.92387953 4.00000000
v 0.70710678 0.70710678 4.00000000
v 0.92387953 0.38268343 4.00000000
v 1.00000000 -9.5317957e-17 1.00000000
v 0.92387953 -0.38268343 1.00000000
v 0.70710678 -0.70710678 1.00000000
v 0.38268343 -0.92387953 1.00000000
v 6.1232340e-17 -1.00000000 1.00000000
v -0.38268343 -0.92387953 1.00000000
v -0.70710678 -0.70710678 1.00000000
v -0.92387953 -0.38268343 1.00000000
v -1.00000000 -2.1778264e-16 1.00000000
v -0.92387953 0.38268343 1.00000000
v -0.70710678 0.70710678 1.00000000
v -0.38268343 0.92387953 1.00000000
v -1.8369702e-16 1.00000000 1.00000000
v 0.38268343 0.92387953 1.00000000
v 0.70710678 0.70710678 1.00000000
v 0.92387953 0.38268343 1.00000000
vn 0.0000000e+0 -1.00000000 0.0000000e+0
vn -1.00000000 0.0000000e+0 0.0000000e+0
vn 0.0000000e+0 0.0000000e+0 -1.00000000
vn 0.0000000e+0 -1.00000000 0.0000000e+0
vn 0.0000000e+0 0.0000000e+0 1.00000000
vn -1.00000000 0.0000000e+0 0.0000000e+0
vn 0.0000000e+0 -1.00000000 0.0000000e+0
vn 0.0000000e+0 0.0000000e+0 1.00000000
vn -1.00000000 0.0000000e+0 0.0000000e+0
vn 0.0000000e+0 1.00000000 0.0000000e+0
vn 0.0000000e+0 0.0000000e+0 -1.00000000
vn -1.00000000 0.0000000e+0 0.0000000e+0
vn 0.0000000e+0 1.00000000 0.0000000e+0
vn -1.00000000 0.0000000e+0 0.0000000e+0
vn 0.0000000e+0 0.0000000e+0 -1.00000000
vn -1.00000000 0.0000000e+0 0.0000000e+0
vn 0.0000000e+0 1.00000000 0.0000000e+0
vn 0.0000000e+0 0.0000000e+0 1.00000000
vn 0.0000000e+0 -1.00000000 0.0000000e+0
vn 0.0000000e+0 0.0000000e+0 -1.00000000
vn 1.00000000 0.0000000e+0 0.0000000e+0
vn 1.00000000 0.0000000e+0 0.0000000e+0
vn 0.0000000e+0 -1.00000000 0.0000000e+0
vn 0.0000000e+0 0.0000000e+0 -1.00000000
vn 0.0000000e+0 -1.00000000 0.0000000e+0
vn 0.0000000e+0 0.0000000e+0 1.00000000
vn 1.00000000 0.0000000e+0 0.0000000e+0
vn 0.0000000e+0 1.00000000 0.0000000e+0
vn 0.0000000e+0 0.0000000e+0 -1.00000000
vn 1.00000000 0.0000000e+0 0.0000000e+0
vn 0.0000000e+0 1.00000000 0.0000000e+0
vn 0.0000000e+0 0.0000000e+0 1.00000000
vn 1.00000000 0.0000000e+0 0.0000000e+0
vn 0.0000000e+0 1.00000000 0.0000000e+0
vn 1.00000000 0.0000000e+0 0.0000000e+0
vn 0.0000000e+0 0.0000000e+0 1.00000000
vn -3.2869204e-32 0.0000000e+0 1.00000000
vn -3.2869204e-32 0.0000000e+0 1.00000000
vn -3.2869204e-32 0.0000000e+0 1.00000000
vn 1.00000000 -1.2734703e-16 9.4255735e-33
vn 1.00000000 -1.2734703e-16 9.4255735e-33
vn 0.92387953 -0.38268343 3.1731356e-17
vn 0.92387953 -0.38268343 3.1731356e-17
vn -1.9341017e-16 0.0000000e+0 1.00000000
vn -1.9341017e-16 0.0000000e+0 1.00000000
vn -1.9341017e-16 0.0000000e+0 1.00000000
vn 0.92387953 -0.38268343 3.1731356e-17
vn 0.92387953 -0.38268343 3.1731356e-17
vn 0.0000000e+0 0.0000000e+0 1.00000000
vn 0.0000000e+0 0.0000000e+0 1.00000000
vn 0.0000000e+0 0.0000000e+0 1.00000000
vn 0.70710678 -0.70710678 7.2528814e-17
vn 0.70710678 -0.70710678 7.2528814e-17
vn 0.38268343 -0.92387953 7.2528814e-17
vn 0.38268343 -0.92387953 7.2528814e-17
vn 0.0000000e+0 0.0000000e+0 1.00000000
vn 0.0000000e+0 0.0000000e+0 1.00000000
vn 0.0000000e+0 0.0000000e+0 1.00000000
vn 0.38268343 -0.92387953 7.2528814e-17
vn 0.38268343 -0.92387953 7.2528814e-17
vn 0.0000000e+0 0.0000000e+0 1.00000000
vn 1.4149670e-17 -1.00000000 0.0000000e+0
vn 1.4149670e-17 -1.00000000 0.0000000e+0
vn -0.38268343 -0.92387953 7.2528814e-17
vn -0.38268343 -0.92387953 7.2528814e-17
vn 0.0000000e+0 0.0000000e+0 1.00000000
vn 0.0000000e+0 0.0000000e+0 1.00000000
vn -0.38268343 -0.92387953 7.2528814e-17
vn -0.38268343 -0.92387953 7.2528814e-17
vn 0.0000000e+0 0.0000000e+0 1.00000000
vn 0.0000000e+0 0.0000000e+0 1.00000000
vn 0.0000000e+0 0.0000000e+0 1.00000000
vn -0.70710678 -0.70710678 8.4616950e-17
vn -0.70710678 -0.70710678 8.4616950e-17
vn -0.92387953 -0.38268343 2.4931780e-17
vn -0.92387953 -0.38268343 2.4931780e-17
vn 0.0000000e+0 0.0000000e+0 1.00000000
vn 0.0000000e+0 0.0000000e+0 1.00000000
vn 0.0000000e+0 0.0000000e+0 1.00000000
vn -0.92387953 -0.38268343 2.4931780e-17
vn -0.92387953 -0.38268343 2.4931780e-17
vn -3.2869204e-32 0.0000000e+0 1.00000000
vn -3.2869204e-32 0.0000000e+0 1.00000000
vn -3.2869204e-32 0.0000000e+0 1.00000000
vn -1.00000000 -5.6598679e-17 3.1418578e-33
vn -1.00000000 -5.6598679e-17 3.1418578e-33
vn 1.9341017e-16 0.0000000e+0 1.00000000
vn -0.92387953 0.38268343 -3.0975848e-17
vn -0.92387953 0.38268343 -3.0975848e-17
vn 1.9341017e-16 0.0000000e+0 1.00000000
vn 1.9341017e-16 0.0000000e+0 1.00000000
vn -0.92387953 0.38268343 -3.0975848e-17
vn -0.92387953 0.38268343 -3.0975848e-17
vn 0.0000000e+0 0.0000000e+0 1.00000000
vn 0.0000000e+0 0.0000000e+0 1.00000000
vn 0.0000000e+0 0.0000000e+0 1.00000000
vn -0.70710678 0.70710678 -7.2528814e-17
vn -0.70710678 0.70710678 -7.2528814e-17
vn -0.38268343 0.92387953 -4.8352543e-17
vn -0.38268343 0.92387953 -4.8352543e-17
vn 0.0000000e+0 0.0000000e+0 1.00000000
vn 0.0000000e+0 0.0000000e+0 1.00000000
vn 0.0000000e+0 0.0000000e+0 1.00000000
vn -0.38268343 0.92387953 -4.8352543e-17
vn -0.38268343 0.92387953 -4.8352543e-17
vn 0.0000000e+0 0.0000000e+0 1.00000000
vn -1.6979604e-16 1.00000000 -4.8352543e-17
vn -1.6979604e-16 1.00000000 -4.8352543e-17
vn 0.38268343 0.92387953 -4.8352543e-17
vn 0.38268343 0.92387953 -4.8352543e-17
vn 0.0000000e+0 0.0000000e+0 1.00000000
vn 0.0000000e+0 0.0000000e+0 1.00000000
vn 0.38268343 0.92387953 -4.8352543e-17
vn 0.38268343 0.92387953 -4.8352543e-17
vn 0.0000000e+0 0.0000000e+0 1.00000000
vn 0.0000000e+0 0.0000000e+0 1.00000000
vn 0.0000000e+0 0.0000000e+0 1.00000000
vn 0.70710678 0.70710678 -4.8352543e-17
vn 0.70710678 0.70710678 -4.8352543e-17
vn 0.0000000e+0 0.0000000e+0 1.00000000
vn 0.92387953 0.38268343 -3.1731356e-17
vn 0.92387953 0.38268343 -3.1731356e-17
vn 0.0000000e+0 0.0000000e+0 1.00000000
vn 0.0000000e+0 0.0000000e+0 1.00000000
vn 0.92387953 0.38268343 -3.1731356e-17
vn 0.92387953 0.38268343 -3.1731356e-17
vn 1.00000000 5.6598679e-17 1.0211038e-32
vn 1.00000000 5.6598679e-17 1.0996502e-32
vn 0.0000000e+0 0.0000000e+0 -1.00000000
vn 0.0000000e+0 0.0000000e+0 -1.00000000
vn 0.0000000e+0 0.0000000e+0 -1.00000000
vn 1.00000000 5.6598679e-17 1.0211038e-32
vn 1.00000000 5.6598679e-17 1.0996502e-32
vn 0.92387953 -0.38268343 3.1731356e-17
vn 0.92387953 -0.38268343 3.1731356e-17
vn 0.0000000e+0 0.0000000e+0 -1.00000000
vn 0.0000000e+0 0.0000000e+0 -1.00000000
vn 0.0000000e+0 0.0000000e+0 -1.00000000
vn 0.70710678 -0.70710678 4.8352543e-17
vn 0.70710678 -0.70710678 4.8352543e-17
vn 0.0000000e+0 0.0000000e+0 -1.00000000
vn 0.0000000e+0 0.0000000e+0 -1.00000000
vn 0.0000000e+0 0.0000000e+0 -1.00000000
vn 0.70710678 -0.70710678 4.8352543e-17
vn 0.70710678 -0.70710678 4.8352543e-17
vn 0.0000000e+0 0.0000000e+0 -1.00000000
vn 0.38268343 -0.92387953 9.6705086e-17
vn 0.38268343 -0.92387953 9.6705086e-17
vn 0.0000000e+0 0.0000000e+0 -1.00000000
vn 0.0000000e+0 0.0000000e+0 -1.00000000
vn 2.8299339e-17 -1.00000000 9.6705086e-17
vn 2.1224505e-17 -1.00000000 9.6705086e-17
vn 2.1224505e-17 -1.00000000 9.6705086e-17
vn 2.8299339e-17 -1.00000000 9.6705086e-17
vn 0.0000000e+0 0.0000000e+0 -1.00000000
vn -0.38268343 -0.92387953 9.6705086e-17
vn -0.38268343 -0.92387953 9.6705086e-17
vn 0.0000000e+0 0.0000000e+0 -1.00000000
vn 0.0000000e+0 0.0000000e+0 -1.00000000
vn -0.70710678 -0.70710678 4.2308475e-17
vn -0.70710678 -0.70710678 4.2308475e-17
vn 0.0000000e+0 0.0000000e+0 -1.00000000
vn 0.0000000e+0 0.0000000e+0 -1.00000000
vn 0.0000000e+0 0.0000000e+0 -1.00000000
vn -0.70710678 -0.70710678 4.2308475e-17
vn -0.70710678 -0.70710678 4.2308475e-17
vn -0.92387953 -0.38268343 7.5550848e-18
vn -0.92387953 -0.38268343 7.5550848e-18
vn 0.0000000e+0 0.0000000e+0 -1.00000000
vn 0.0000000e+0 0.0000000e+0 -1.00000000
vn 0.0000000e+0 0.0000000e+0 -1.00000000
vn -1.00000000 -2.8299339e-17 2.3563934e-33
vn -1.00000000 -3.5374174e-17 1.5709289e-33
vn 0.0000000e+0 0.0000000e+0 -1.00000000
vn 0.0000000e+0 0.0000000e+0 -1.00000000
vn 0.0000000e+0 0.0000000e+0 -1.00000000
vn -1.00000000 -3.5374174e-17 2.3563934e-33
vn -1.00000000 -2.8299339e-17 1.9636611e-33
vn -0.92387953 0.38268343 -3.1731356e-17
vn -0.92387953 0.38268343 -3.1731356e-17
vn 0.0000000e+0 0.0000000e+0 -1.00000000
vn 0.0000000e+0 0.0000000e+0 -1.00000000
vn 0.0000000e+0 0.0000000e+0 -1.00000000
vn -0.70710678 0.70710678 -4.8352543e-17
vn -0.70710678 0.70710678 -4.8352543e-17
vn 0.0000000e+0 0.0000000e+0 -1.00000000
vn 0.0000000e+0 0.0000000e+0 -1.00000000
vn 0.0000000e+0 0.0000000e+0 -1.00000000
vn -0.70710678 0.70710678 -4.8352543e-17
vn -0.70710678 0.70710678 -4.8352543e-17
vn -0.38268343 0.92387953 -4.8352543e-17
vn -0.38268343 0.92387953 -4.8352543e-17
vn 0.0000000e+0 0.0000000e+0 -1.00000000
vn 0.0000000e+0 0.0000000e+0 -1.00000000
vn -1.4149670e-16 1.00000000 -4.8352543e-17
vn -1.4857153e-16 1.00000000 -4.8352543e-17
vn 0.0000000e+0 0.0000000e+0 -1.00000000
vn -1.4857153e-16 1.00000000 -4.8352543e-17
vn -1.4149670e-16 1.00000000 -4.8352543e-17
vn 0.38268343 0.92387953 -4.8352543e-17
vn 0.38268343 0.92387953 -4.8352543e-17
vn 0.0000000e+0 0.0000000e+0 -1.00000000
vn 0.0000000e+0 0.0000000e+0 -1.00000000
vn 0.0000000e+0 0.0000000e+0 -1.00000000
vn 0.70710678 0.70710678 -4.8352543e-17
vn 0.70710678 0.70710678 -4.8352543e-17
vn 0.0000000e+0 0.0000000e+0 -1.00000000
vn 0.0000000e+0 0.0000000e+0 -1.00000000
vn 0.0000000e+0 0.0000000e+0 -1.00000000
vn 0.70710678 0.70710678 -4.8352543e-17
vn 0.70710678 0.70710678 -4.8352543e-17
vn 0.92387953 0.38268343 -7.5550848e-18
vn 0.92387953 0.38268343 -7.5550848e-18
vn 0.0000000e+0 0.0000000e+0 -1.00000000
vn 0.0000000e+0 0.0000000e+0 -1.00000000
vn 0.0000000e+0 0.0000000e+0 -1.00000000
g Cube2_GOLD_KAPTON
usemtl GOLD_KAPTON
s 1
f 1//1 5//23 2//7
f 2//4 5//19 6//25
f 3//10 8//31 7//28
f 4//17 8//34 3//13
s 2
f 2//9 3//14 1//2
f 4//16 3//12 2//6
f 5//22 8//35 6//27
f 7//30 8//33 5//21
s 3
f 2//8 8//36 4//18
f 3//15 5//24 1//3
f 6//26 8//32 2//5
f 7//29 5//20 3//11
g Cube2_SILVER_KAPTON
usemtl SILVER_KAPTON
s 1
f 9//39 17//83 10//45
f 10//44 16//78 11//51
f 11//49 15//71 12//58
f 12//56 14//66 13//61
f 14//67 12//57 15//70
f 15//72 11//50 16//77
f 16//79 10//46 17//84
f 17//82 9//38 18//90
f 18//91 24//124 19//95
f 19//96 23//117 20//102
f 20//103 22//112 21//106
f 22//111 20//101 23//116
f 23//115 19//94 24//123
f 24//120 18//87 9//37
f 25//131 33//176 40//215
f 26//138 32//170 25//129
f 27//143 31//163 26//136
f 28//149 30//158 27//141
f 29//150 30//155 28//146
f 31//162 27//142 30//159
f 32//169 26//137 31//164
f 33//175 25//130 32//171
f 34//181 40//214 33//174
f 35//186 39//207 34//182
f 36//194 38//203 35//187
f 37//197 38//202 36//193
f 39//209 35//188 38//204
f 40//216 34//183 39//208
s 2
f 9//40 25//132 24//125
f 10//47 25//133 9//41
f 10//42 27//140 26//134
f 11//52 27//144 10//48
f 12//59 27//145 11//53
f 12//54 29//152 28//147
f 13//62 29//153 12//60
f 14//68 29//154 13//63
f 14//64 31//161 30//156
f 15//73 31//165 14//69
f 16//80 31//166 15//74
f 16//75 33//173 32//167
f 17//85 33//177 16//81
f 18//92 33//178 17//86
f 18//88 35//185 34//179
f 19//97 35//189 18//93
f 20//104 35//190 19//98
f 20//99 37//196 36//191
f 21//107 37//198 20//105
f 22//113 37//199 21//108
f 22//109 39//206 38//200
f 23//118 39//210 22//114
f 24//121 25//127 40//212
f 24//126 39//211 23//119
f 26//135 25//128 10//43
f 28//148 27//139 12//55
f 30//157 29//151 14//65
f 32//168 31//160 16//76
f 34//180 33//172 18//89
f 36//192 35//184 20//100
f 38//201 37//195 22//110
f 40//213 39//205 24//122
