# Nv = 4  Nvt = 0  Nvn = 12  Npoly = 4
# Exported from Wings 3D 1.5.2
mtllib SmallTet.mtl
o tetrahedron1
#4 vertices, 4 faces
v 0.0000000e+0 2.7216553e-2 0.0000000e+0
v 0.0000000e+0 -1.3608276e-2 2.8867513e-2
v -2.5000000e-2 -1.3608276e-2 -1.4433757e-2
v 2.5000000e-2 -1.3608276e-2 -1.4433757e-2
vn -0.81649658 0.33333333 0.47140452
vn 0.81649658 0.33333333 0.47140452
vn 0.0000000e+0 0.33333333 -0.94280904
vn -0.81649658 0.33333333 0.47140452
vn 0.0000000e+0 -1.00000000 0.0000000e+0
vn 0.81649658 0.33333333 0.47140452
vn -0.81649658 0.33333333 0.47140452
vn 0.0000000e+0 -1.00000000 0.0000000e+0
vn 0.0000000e+0 0.33333333 -0.94280904
vn 0.0000000e+0 -1.00000000 0.0000000e+0
vn 0.81649658 0.33333333 0.47140452
vn 0.0000000e+0 0.33333333 -0.94280904
g tetrahedron1_FLAT_WHITE
usemtl FLAT_WHITE
s 1
f 1//1 3//7 2//4
s 2
f 1//3 4//12 3//9
s 3
f 3//8 4//10 2//5
s 4
f 2//6 4//11 1//2
