# Nv = 64  Nvt = 0  Nvn = 372  Npoly = 124
# Exported from Wings 3D 1.4.1
mtllib TumbleSat1.mtl
o cylinder2
#64 vertices, 124 faces
v 0.0000000e+0 0.10000000 0.0000000e+0
v 0.0000000e+0 9.8078528e-2 1.9509032e-2
v 0.0000000e+0 9.2387953e-2 3.8268343e-2
v 0.0000000e+0 8.3146961e-2 5.5557023e-2
v 0.0000000e+0 7.0710678e-2 7.0710678e-2
v 0.0000000e+0 5.5557023e-2 8.3146961e-2
v 0.0000000e+0 3.8268343e-2 9.2387953e-2
v 0.0000000e+0 1.9509032e-2 9.8078528e-2
v 0.0000000e+0 4.1076213e-17 0.10000000
v 0.0000000e+0 -1.9509032e-2 9.8078528e-2
v 0.0000000e+0 -3.8268343e-2 9.2387953e-2
v 0.0000000e+0 -5.5557023e-2 8.3146961e-2
v 0.0000000e+0 -7.0710678e-2 7.0710678e-2
v 0.0000000e+0 -8.3146961e-2 5.5557023e-2
v 0.0000000e+0 -9.2387953e-2 3.8268343e-2
v 0.0000000e+0 -9.8078528e-2 1.9509032e-2
v 0.0000000e+0 -1.0000000e-1 1.2246468e-17
v 0.0000000e+0 -9.8078528e-2 -1.9509032e-2
v 0.0000000e+0 -9.2387953e-2 -3.8268343e-2
v 0.0000000e+0 -8.3146961e-2 -5.5557023e-2
v 0.0000000e+0 -7.0710678e-2 -7.0710678e-2
v 0.0000000e+0 -5.5557023e-2 -8.3146961e-2
v 0.0000000e+0 -3.8268343e-2 -9.2387953e-2
v 0.0000000e+0 -1.9509032e-2 -9.8078528e-2
v 0.0000000e+0 1.6583277e-17 -0.10000000
v 0.0000000e+0 1.9509032e-2 -9.8078528e-2
v 0.0000000e+0 3.8268343e-2 -9.2387953e-2
v 0.0000000e+0 5.5557023e-2 -8.3146961e-2
v 0.0000000e+0 7.0710678e-2 -7.0710678e-2
v 0.0000000e+0 8.3146961e-2 -5.5557023e-2
v 0.0000000e+0 9.2387953e-2 -3.8268343e-2
v 0.0000000e+0 9.8078528e-2 -1.9509032e-2
v 1.00000000 1.0000000e-1 0.0000000e+0
v 1.00000000 9.8078528e-2 1.9509032e-2
v 1.00000000 9.2387953e-2 3.8268343e-2
v 1.00000000 8.3146961e-2 5.5557023e-2
v 1.00000000 7.0710678e-2 7.0710678e-2
v 1.00000000 5.5557023e-2 8.3146961e-2
v 1.00000000 3.8268343e-2 9.2387953e-2
v 1.00000000 1.9509032e-2 9.8078528e-2
v 1.00000000 -2.0156127e-17 0.10000000
v 1.00000000 -1.9509032e-2 9.8078528e-2
v 1.00000000 -3.8268343e-2 9.2387953e-2
v 1.00000000 -5.5557023e-2 8.3146961e-2
v 1.00000000 -7.0710678e-2 7.0710678e-2
v 1.00000000 -8.3146961e-2 5.5557023e-2
v 1.00000000 -9.2387953e-2 3.8268343e-2
v 1.00000000 -9.8078528e-2 1.9509032e-2
v 1.00000000 -0.10000000 1.2246468e-17
v 1.00000000 -9.8078528e-2 -1.9509032e-2
v 1.00000000 -9.2387953e-2 -3.8268343e-2
v 1.00000000 -8.3146961e-2 -5.5557023e-2
v 1.00000000 -7.0710678e-2 -7.0710678e-2
v 1.00000000 -5.5557023e-2 -8.3146961e-2
v 1.00000000 -3.8268343e-2 -9.2387953e-2
v 1.00000000 -1.9509032e-2 -9.8078528e-2
v 1.00000000 -4.4649063e-17 -0.10000000
v 1.00000000 1.9509032e-2 -9.8078528e-2
v 1.00000000 3.8268343e-2 -9.2387953e-2
v 1.00000000 5.5557023e-2 -8.3146961e-2
v 1.00000000 7.0710678e-2 -7.0710678e-2
v 1.00000000 8.3146961e-2 -5.5557023e-2
v 1.00000000 9.2387953e-2 -3.8268343e-2
v 1.00000000 9.8078528e-2 -1.9509032e-2
vn -1.00000000 0.0000000e+0 0.0000000e+0
vn -1.00000000 0.0000000e+0 0.0000000e+0
vn -1.00000000 0.0000000e+0 0.0000000e+0
vn 5.5400700e-17 1.00000000 1.1155949e-16
vn 5.5400700e-17 1.00000000 1.1155949e-16
vn 5.4185011e-17 0.98078528 0.19509032
vn 5.4185011e-17 0.98078528 0.19509032
vn -1.00000000 0.0000000e+0 0.0000000e+0
vn -1.00000000 0.0000000e+0 0.0000000e+0
vn -1.00000000 0.0000000e+0 0.0000000e+0
vn 5.4185011e-17 0.98078528 0.19509032
vn 5.4185011e-17 0.98078528 0.19509032
vn -1.00000000 0.0000000e+0 0.0000000e+0
vn -1.00000000 0.0000000e+0 0.0000000e+0
vn -1.00000000 0.0000000e+0 0.0000000e+0
vn 5.1406292e-17 0.92387953 0.38268343
vn 5.1406292e-17 0.92387953 0.38268343
vn 4.5848855e-17 0.83146961 0.55557023
vn 4.5848855e-17 0.83146961 0.55557023
vn -1.00000000 0.0000000e+0 0.0000000e+0
vn -1.00000000 0.0000000e+0 0.0000000e+0
vn -1.00000000 0.0000000e+0 0.0000000e+0
vn 4.5848855e-17 0.83146961 0.55557023
vn 4.5848855e-17 0.83146961 0.55557023
vn -1.00000000 0.0000000e+0 0.0000000e+0
vn -1.00000000 0.0000000e+0 0.0000000e+0
vn -1.00000000 0.0000000e+0 0.0000000e+0
vn 3.3344622e-17 0.70710678 0.70710678
vn 3.3344622e-17 0.70710678 0.70710678
vn 3.3344622e-17 0.55557023 0.83146961
vn 3.3344622e-17 0.55557023 0.83146961
vn -1.00000000 0.0000000e+0 0.0000000e+0
vn -1.00000000 0.0000000e+0 0.0000000e+0
vn -1.00000000 0.0000000e+0 0.0000000e+0
vn 3.3344622e-17 0.55557023 0.83146961
vn 3.3344622e-17 0.55557023 0.83146961
vn -1.00000000 0.0000000e+0 0.0000000e+0
vn -1.00000000 0.0000000e+0 0.0000000e+0
vn -1.00000000 0.0000000e+0 0.0000000e+0
vn 2.2229748e-17 0.38268343 0.92387953
vn 2.2229748e-17 0.38268343 0.92387953
vn 5.5574370e-18 0.19509032 0.98078528
vn 5.5574370e-18 0.19509032 0.98078528
vn -1.00000000 0.0000000e+0 0.0000000e+0
vn -1.00000000 0.0000000e+0 0.0000000e+0
vn -1.00000000 0.0000000e+0 0.0000000e+0
vn 5.5574370e-18 0.19509032 0.98078528
vn 5.5574370e-18 0.19509032 0.98078528
vn -1.00000000 0.0000000e+0 0.0000000e+0
vn -1.1114874e-17 0.0000000e+0 1.00000000
vn -1.1114874e-17 0.0000000e+0 1.00000000
vn -5.5574370e-18 -0.19509032 0.98078528
vn -5.5574370e-18 -0.19509032 0.98078528
vn -1.00000000 0.0000000e+0 0.0000000e+0
vn -1.00000000 0.0000000e+0 0.0000000e+0
vn -5.5574370e-18 -0.19509032 0.98078528
vn -5.5574370e-18 -0.19509032 0.98078528
vn -1.00000000 0.0000000e+0 0.0000000e+0
vn -1.00000000 0.0000000e+0 0.0000000e+0
vn -1.00000000 0.0000000e+0 0.0000000e+0
vn -2.2229748e-17 -0.38268343 0.92387953
vn -2.2229748e-17 -0.38268343 0.92387953
vn -3.3344622e-17 -0.55557023 0.83146961
vn -3.3344622e-17 -0.55557023 0.83146961
vn -1.00000000 0.0000000e+0 0.0000000e+0
vn -1.00000000 0.0000000e+0 0.0000000e+0
vn -1.00000000 0.0000000e+0 0.0000000e+0
vn -3.3344622e-17 -0.55557023 0.83146961
vn -3.3344622e-17 -0.55557023 0.83146961
vn -1.00000000 0.0000000e+0 0.0000000e+0
vn -1.00000000 0.0000000e+0 0.0000000e+0
vn -1.00000000 0.0000000e+0 0.0000000e+0
vn -3.3344622e-17 -0.70710678 0.70710678
vn -3.3344622e-17 -0.70710678 0.70710678
vn -4.5848855e-17 -0.83146961 0.55557023
vn -4.5848855e-17 -0.83146961 0.55557023
vn -1.00000000 0.0000000e+0 0.0000000e+0
vn -1.00000000 0.0000000e+0 0.0000000e+0
vn -1.00000000 0.0000000e+0 0.0000000e+0
vn -4.5848855e-17 -0.83146961 0.55557023
vn -4.5848855e-17 -0.83146961 0.55557023
vn -1.00000000 0.0000000e+0 0.0000000e+0
vn -1.00000000 0.0000000e+0 0.0000000e+0
vn -1.00000000 0.0000000e+0 0.0000000e+0
vn -5.1406292e-17 -0.92387953 0.38268343
vn -5.1406292e-17 -0.92387953 0.38268343
vn -5.4185011e-17 -0.98078528 0.19509032
vn -5.4185011e-17 -0.98078528 0.19509032
vn -1.00000000 0.0000000e+0 0.0000000e+0
vn -1.00000000 0.0000000e+0 0.0000000e+0
vn -1.00000000 0.0000000e+0 0.0000000e+0
vn -5.4185011e-17 -0.98078528 0.19509032
vn -5.4185011e-17 -0.98078528 0.19509032
vn -1.00000000 0.0000000e+0 0.0000000e+0
vn -1.00000000 0.0000000e+0 0.0000000e+0
vn -1.00000000 0.0000000e+0 0.0000000e+0
vn -5.5400700e-17 -1.00000000 0.0000000e+0
vn -5.5400700e-17 -1.00000000 0.0000000e+0
vn -1.00000000 0.0000000e+0 0.0000000e+0
vn -5.4185011e-17 -0.98078528 -0.19509032
vn -5.4185011e-17 -0.98078528 -0.19509032
vn -1.00000000 0.0000000e+0 0.0000000e+0
vn -1.00000000 0.0000000e+0 0.0000000e+0
vn -5.4185011e-17 -0.98078528 -0.19509032
vn -5.4185011e-17 -0.98078528 -0.19509032
vn -1.00000000 0.0000000e+0 0.0000000e+0
vn -1.00000000 0.0000000e+0 0.0000000e+0
vn -1.00000000 0.0000000e+0 0.0000000e+0
vn -5.1406292e-17 -0.92387953 -0.38268343
vn -5.1406292e-17 -0.92387953 -0.38268343
vn -4.5848855e-17 -0.83146961 -0.55557023
vn -4.5848855e-17 -0.83146961 -0.55557023
vn -1.00000000 0.0000000e+0 0.0000000e+0
vn -1.00000000 0.0000000e+0 0.0000000e+0
vn -1.00000000 0.0000000e+0 0.0000000e+0
vn -4.5848855e-17 -0.83146961 -0.55557023
vn -4.5848855e-17 -0.83146961 -0.55557023
vn -1.00000000 0.0000000e+0 0.0000000e+0
vn -1.00000000 0.0000000e+0 0.0000000e+0
vn -1.00000000 0.0000000e+0 0.0000000e+0
vn -4.4459496e-17 -0.70710678 -0.70710678
vn -4.4459496e-17 -0.70710678 -0.70710678
vn -3.3344622e-17 -0.55557023 -0.83146961
vn -3.3344622e-17 -0.55557023 -0.83146961
vn -1.00000000 0.0000000e+0 0.0000000e+0
vn -1.00000000 0.0000000e+0 0.0000000e+0
vn -1.00000000 0.0000000e+0 0.0000000e+0
vn -3.3344622e-17 -0.55557023 -0.83146961
vn -3.3344622e-17 -0.55557023 -0.83146961
vn -1.00000000 0.0000000e+0 0.0000000e+0
vn -1.00000000 0.0000000e+0 0.0000000e+0
vn -1.00000000 0.0000000e+0 0.0000000e+0
vn -2.2229748e-17 -0.38268343 -0.92387953
vn -2.2229748e-17 -0.38268343 -0.92387953
vn -5.5574370e-18 -0.19509032 -0.98078528
vn -5.5574370e-18 -0.19509032 -0.98078528
vn -1.00000000 0.0000000e+0 0.0000000e+0
vn -1.00000000 0.0000000e+0 0.0000000e+0
vn -1.00000000 0.0000000e+0 0.0000000e+0
vn -5.5574370e-18 -0.19509032 -0.98078528
vn -5.5574370e-18 -0.19509032 -0.98078528
vn -1.00000000 0.0000000e+0 0.0000000e+0
vn -1.5481990e-33 -3.4165094e-16 -1.00000000
vn -1.5481990e-33 -3.4165094e-16 -1.00000000
vn 5.5574370e-18 0.19509032 -0.98078528
vn 5.5574370e-18 0.19509032 -0.98078528
vn -1.00000000 0.0000000e+0 0.0000000e+0
vn -1.00000000 0.0000000e+0 0.0000000e+0
vn 5.5574370e-18 0.19509032 -0.98078528
vn 5.5574370e-18 0.19509032 -0.98078528
vn -1.00000000 0.0000000e+0 0.0000000e+0
vn -1.00000000 0.0000000e+0 0.0000000e+0
vn -1.00000000 0.0000000e+0 0.0000000e+0
vn 1.1114874e-17 0.38268343 -0.92387953
vn 1.1114874e-17 0.38268343 -0.92387953
vn 3.3344622e-17 0.55557023 -0.83146961
vn 3.3344622e-17 0.55557023 -0.83146961
vn -1.00000000 0.0000000e+0 0.0000000e+0
vn -1.00000000 0.0000000e+0 0.0000000e+0
vn -1.00000000 0.0000000e+0 0.0000000e+0
vn 3.3344622e-17 0.55557023 -0.83146961
vn 3.3344622e-17 0.55557023 -0.83146961
vn -1.00000000 0.0000000e+0 0.0000000e+0
vn -1.00000000 0.0000000e+0 0.0000000e+0
vn -1.00000000 0.0000000e+0 0.0000000e+0
vn 3.8902059e-17 0.70710678 -0.70710678
vn 3.8902059e-17 0.70710678 -0.70710678
vn 4.5848855e-17 0.83146961 -0.55557023
vn 4.5848855e-17 0.83146961 -0.55557023
vn -1.00000000 0.0000000e+0 0.0000000e+0
vn -1.00000000 0.0000000e+0 0.0000000e+0
vn -1.00000000 0.0000000e+0 0.0000000e+0
vn 4.5848855e-17 0.83146961 -0.55557023
vn 4.5848855e-17 0.83146961 -0.55557023
vn -1.00000000 0.0000000e+0 0.0000000e+0
vn -1.00000000 0.0000000e+0 0.0000000e+0
vn -1.00000000 0.0000000e+0 0.0000000e+0
vn 5.1406292e-17 0.92387953 -0.38268343
vn 5.1406292e-17 0.92387953 -0.38268343
vn -1.00000000 0.0000000e+0 0.0000000e+0
vn 5.4185011e-17 0.98078528 -0.19509032
vn 5.4185011e-17 0.98078528 -0.19509032
vn -1.00000000 0.0000000e+0 0.0000000e+0
vn -1.00000000 0.0000000e+0 0.0000000e+0
vn 5.4185011e-17 0.98078528 -0.19509032
vn 5.4185011e-17 0.98078528 -0.19509032
vn 5.5511151e-17 1.00000000 -2.4055015e-16
vn 5.5511151e-17 1.00000000 -2.3706392e-16
vn 1.00000000 0.0000000e+0 0.0000000e+0
vn 1.00000000 0.0000000e+0 0.0000000e+0
vn 1.00000000 0.0000000e+0 0.0000000e+0
vn 5.5511151e-17 1.00000000 -2.4055015e-16
vn 5.5511151e-17 1.00000000 -2.3706392e-16
vn 5.4185011e-17 0.98078528 0.19509032
vn 5.4185011e-17 0.98078528 0.19509032
vn 1.00000000 0.0000000e+0 0.0000000e+0
vn 1.00000000 0.0000000e+0 0.0000000e+0
vn 1.00000000 0.0000000e+0 0.0000000e+0
vn 5.1285616e-17 0.92387953 0.38268343
vn 5.1285616e-17 0.92387953 0.38268343
vn 1.00000000 0.0000000e+0 0.0000000e+0
vn 1.00000000 0.0000000e+0 0.0000000e+0
vn 1.00000000 0.0000000e+0 0.0000000e+0
vn 5.1285616e-17 0.92387953 0.38268343
vn 5.1285616e-17 0.92387953 0.38268343
vn 4.4459496e-17 0.83146961 0.55557023
vn 4.4459496e-17 0.83146961 0.55557023
vn 1.00000000 0.0000000e+0 0.0000000e+0
vn 1.00000000 0.0000000e+0 0.0000000e+0
vn 1.00000000 0.0000000e+0 0.0000000e+0
vn 3.9252311e-17 0.70710678 0.70710678
vn 3.9252311e-17 0.70710678 0.70710678
vn 1.00000000 0.0000000e+0 0.0000000e+0
vn 1.00000000 0.0000000e+0 0.0000000e+0
vn 1.00000000 0.0000000e+0 0.0000000e+0
vn 3.9252311e-17 0.70710678 0.70710678
vn 3.9252311e-17 0.70710678 0.70710678
vn 3.3344622e-17 0.55557023 0.83146961
vn 3.3344622e-17 0.55557023 0.83146961
vn 1.00000000 0.0000000e+0 0.0000000e+0
vn 1.00000000 0.0000000e+0 0.0000000e+0
vn 1.00000000 0.0000000e+0 0.0000000e+0
vn 2.2012975e-17 0.38268343 0.92387953
vn 2.2012975e-17 0.38268343 0.92387953
vn 1.00000000 0.0000000e+0 0.0000000e+0
vn 1.00000000 0.0000000e+0 0.0000000e+0
vn 1.00000000 0.0000000e+0 0.0000000e+0
vn 2.2012975e-17 0.38268343 0.92387953
vn 2.2012975e-17 0.38268343 0.92387953
vn 1.00000000 0.0000000e+0 0.0000000e+0
vn 2.2229748e-17 0.19509032 0.98078528
vn 2.2229748e-17 0.19509032 0.98078528
vn 1.00000000 0.0000000e+0 0.0000000e+0
vn 1.00000000 0.0000000e+0 0.0000000e+0
vn 0.0000000e+0 0.0000000e+0 1.00000000
vn 0.0000000e+0 0.0000000e+0 1.00000000
vn 0.0000000e+0 0.0000000e+0 1.00000000
vn 0.0000000e+0 0.0000000e+0 1.00000000
vn 1.00000000 0.0000000e+0 0.0000000e+0
vn -7.7409948e-34 -0.19509032 0.98078528
vn -7.7409948e-34 -0.19509032 0.98078528
vn 1.00000000 0.0000000e+0 0.0000000e+0
vn 1.00000000 0.0000000e+0 0.0000000e+0
vn -2.2012975e-17 -0.38268343 0.92387953
vn -2.2012975e-17 -0.38268343 0.92387953
vn 1.00000000 0.0000000e+0 0.0000000e+0
vn 1.00000000 0.0000000e+0 0.0000000e+0
vn 1.00000000 0.0000000e+0 0.0000000e+0
vn -2.2012975e-17 -0.38268343 0.92387953
vn -2.2012975e-17 -0.38268343 0.92387953
vn -4.4459496e-17 -0.55557023 0.83146961
vn -4.4459496e-17 -0.55557023 0.83146961
vn 1.00000000 0.0000000e+0 0.0000000e+0
vn 1.00000000 0.0000000e+0 0.0000000e+0
vn 1.00000000 0.0000000e+0 0.0000000e+0
vn -3.9252311e-17 -0.70710678 0.70710678
vn -3.9252311e-17 -0.70710678 0.70710678
vn 1.00000000 0.0000000e+0 0.0000000e+0
vn 1.00000000 0.0000000e+0 0.0000000e+0
vn 1.00000000 0.0000000e+0 0.0000000e+0
vn -3.9252311e-17 -0.70710678 0.70710678
vn -3.9252311e-17 -0.70710678 0.70710678
vn -4.4459496e-17 -0.83146961 0.55557023
vn -4.4459496e-17 -0.83146961 0.55557023
vn 1.00000000 0.0000000e+0 0.0000000e+0
vn 1.00000000 0.0000000e+0 0.0000000e+0
vn 1.00000000 0.0000000e+0 0.0000000e+0
vn -5.1285616e-17 -0.92387953 0.38268343
vn -5.1285616e-17 -0.92387953 0.38268343
vn 1.00000000 0.0000000e+0 0.0000000e+0
vn 1.00000000 0.0000000e+0 0.0000000e+0
vn 1.00000000 0.0000000e+0 0.0000000e+0
vn -5.1285616e-17 -0.92387953 0.38268343
vn -5.1285616e-17 -0.92387953 0.38268343
vn -5.4185011e-17 -0.98078528 0.19509032
vn -5.4185011e-17 -0.98078528 0.19509032
vn 1.00000000 0.0000000e+0 0.0000000e+0
vn 1.00000000 0.0000000e+0 0.0000000e+0
vn 1.00000000 0.0000000e+0 0.0000000e+0
vn -5.5511151e-17 -1.00000000 0.0000000e+0
vn -5.5511151e-17 -1.00000000 0.0000000e+0
vn 1.00000000 0.0000000e+0 0.0000000e+0
vn 1.00000000 0.0000000e+0 0.0000000e+0
vn 1.00000000 0.0000000e+0 0.0000000e+0
vn -5.5511151e-17 -1.00000000 0.0000000e+0
vn -5.5511151e-17 -1.00000000 0.0000000e+0
vn -5.4358681e-17 -0.98078528 -0.19509032
vn -5.4358681e-17 -0.98078528 -0.19509032
vn 1.00000000 0.0000000e+0 0.0000000e+0
vn 1.00000000 0.0000000e+0 0.0000000e+0
vn 1.00000000 0.0000000e+0 0.0000000e+0
vn -5.1285616e-17 -0.92387953 -0.38268343
vn -5.1285616e-17 -0.92387953 -0.38268343
vn 1.00000000 0.0000000e+0 0.0000000e+0
vn 1.00000000 0.0000000e+0 0.0000000e+0
vn 1.00000000 0.0000000e+0 0.0000000e+0
vn -5.1285616e-17 -0.92387953 -0.38268343
vn -5.1285616e-17 -0.92387953 -0.38268343
vn -4.4459496e-17 -0.83146961 -0.55557023
vn -4.4459496e-17 -0.83146961 -0.55557023
vn 1.00000000 0.0000000e+0 0.0000000e+0
vn 1.00000000 0.0000000e+0 0.0000000e+0
vn 1.00000000 0.0000000e+0 0.0000000e+0
vn -3.9252311e-17 -0.70710678 -0.70710678
vn -3.9252311e-17 -0.70710678 -0.70710678
vn 1.00000000 0.0000000e+0 0.0000000e+0
vn 1.00000000 0.0000000e+0 0.0000000e+0
vn 1.00000000 0.0000000e+0 0.0000000e+0
vn -3.9252311e-17 -0.70710678 -0.70710678
vn -3.9252311e-17 -0.70710678 -0.70710678
vn -3.3344622e-17 -0.55557023 -0.83146961
vn -3.3344622e-17 -0.55557023 -0.83146961
vn 1.00000000 0.0000000e+0 0.0000000e+0
vn 1.00000000 0.0000000e+0 0.0000000e+0
vn 1.00000000 0.0000000e+0 0.0000000e+0
vn -2.2012975e-17 -0.38268343 -0.92387953
vn -2.2012975e-17 -0.38268343 -0.92387953
vn 1.00000000 0.0000000e+0 0.0000000e+0
vn 1.00000000 0.0000000e+0 0.0000000e+0
vn 1.00000000 0.0000000e+0 0.0000000e+0
vn -2.2012975e-17 -0.38268343 -0.92387953
vn -2.2012975e-17 -0.38268343 -0.92387953
vn -1.1114874e-17 -0.19509032 -0.98078528
vn -1.1114874e-17 -0.19509032 -0.98078528
vn 1.00000000 0.0000000e+0 0.0000000e+0
vn 1.00000000 0.0000000e+0 0.0000000e+0
vn -1.9352487e-32 -3.4165094e-16 -1.00000000
vn -1.9352487e-32 -3.4165094e-16 -1.00000000
vn 1.00000000 0.0000000e+0 0.0000000e+0
vn -1.9352487e-32 -3.4165094e-16 -1.00000000
vn -1.9352487e-32 -3.4165094e-16 -1.00000000
vn 2.2229748e-17 0.19509032 -0.98078528
vn 2.2229748e-17 0.19509032 -0.98078528
vn 1.00000000 0.0000000e+0 0.0000000e+0
vn 1.00000000 0.0000000e+0 0.0000000e+0
vn 1.00000000 0.0000000e+0 0.0000000e+0
vn 2.2012975e-17 0.38268343 -0.92387953
vn 2.2012975e-17 0.38268343 -0.92387953
vn 1.00000000 0.0000000e+0 0.0000000e+0
vn 1.00000000 0.0000000e+0 0.0000000e+0
vn 1.00000000 0.0000000e+0 0.0000000e+0
vn 2.2012975e-17 0.38268343 -0.92387953
vn 2.2012975e-17 0.38268343 -0.92387953
vn 3.3344622e-17 0.55557023 -0.83146961
vn 3.3344622e-17 0.55557023 -0.83146961
vn 1.00000000 0.0000000e+0 0.0000000e+0
vn 1.00000000 0.0000000e+0 0.0000000e+0
vn 1.00000000 0.0000000e+0 0.0000000e+0
vn 3.9252311e-17 0.70710678 -0.70710678
vn 3.9252311e-17 0.70710678 -0.70710678
vn 1.00000000 0.0000000e+0 0.0000000e+0
vn 1.00000000 0.0000000e+0 0.0000000e+0
vn 1.00000000 0.0000000e+0 0.0000000e+0
vn 3.9252311e-17 0.70710678 -0.70710678
vn 3.9252311e-17 0.70710678 -0.70710678
vn 5.0016933e-17 0.83146961 -0.55557023
vn 5.0016933e-17 0.83146961 -0.55557023
vn 1.00000000 0.0000000e+0 0.0000000e+0
vn 1.00000000 0.0000000e+0 0.0000000e+0
vn 1.00000000 0.0000000e+0 0.0000000e+0
vn 5.1285616e-17 0.92387953 -0.38268343
vn 5.1285616e-17 0.92387953 -0.38268343
vn 1.00000000 0.0000000e+0 0.0000000e+0
vn 1.00000000 0.0000000e+0 0.0000000e+0
vn 1.00000000 0.0000000e+0 0.0000000e+0
vn 5.1285616e-17 0.92387953 -0.38268343
vn 5.1285616e-17 0.92387953 -0.38268343
vn 5.4358681e-17 0.98078528 -0.19509032
vn 5.4358681e-17 0.98078528 -0.19509032
vn 1.00000000 0.0000000e+0 0.0000000e+0
vn 1.00000000 0.0000000e+0 0.0000000e+0
vn 1.00000000 0.0000000e+0 0.0000000e+0
g cylinder2_MATL_Body1
usemtl MATL_Body1
s 1
f 1//3 17//95 2//9
f 2//8 16//90 3//15
f 3//13 15//83 4//22
f 4//20 14//78 5//27
f 5//25 13//71 6//34
f 6//32 12//66 7//39
f 7//37 11//59 8//46
f 8//44 10//54 9//49
f 10//55 8//45 11//58
f 11//60 7//38 12//65
f 12//67 6//33 13//70
f 13//72 5//26 14//77
f 14//79 4//21 15//82
f 15//84 3//14 16//89
f 16//91 2//10 17//96
f 17//94 1//2 18//102
f 18//103 32//184 19//107
f 19//108 31//177 20//114
f 20//115 30//172 21//119
f 21//120 29//165 22//126
f 22//127 28//160 23//131
f 23//132 27//153 24//138
f 24//139 26//148 25//142
f 26//147 24//137 27//152
f 27//151 23//130 28//159
f 28//158 22//125 29//164
f 29//163 21//118 30//171
f 30//170 20//113 31//176
f 31//175 19//106 32//183
f 32//180 18//99 1//1
f 33//191 49//284 64//371
f 34//198 48//278 33//189
f 35//203 47//271 34//196
f 36//210 46//266 35//201
f 37//215 45//259 36//208
f 38//222 44//254 37//213
f 39//227 43//247 38//220
f 40//233 42//242 39//225
f 41//234 42//239 40//230
f 43//246 39//226 42//243
f 44//253 38//221 43//248
f 45//258 37//214 44//255
f 46//265 36//209 45//260
f 47//270 35//202 46//267
f 48//277 34//197 47//272
f 49//283 33//190 48//279
f 50//289 64//370 49//282
f 51//294 63//363 50//290
f 52//301 62//358 51//295
f 53//306 61//351 52//302
f 54//313 60//346 53//307
f 55//318 59//339 54//314
f 56//326 58//335 55//319
f 57//329 58//334 56//325
f 59//341 55//320 58//336
f 60//348 54//315 59//340
f 61//353 53//308 60//347
f 62//360 52//303 61//352
f 63//365 51//296 62//359
f 64//372 50//291 63//364
s 2
f 1//4 33//192 32//185
f 2//11 33//193 1//5
f 2//6 35//200 34//194
f 3//16 35//204 2//12
f 4//23 35//205 3//17
f 4//18 37//212 36//206
f 5//28 37//216 4//24
f 6//35 37//217 5//29
f 6//30 39//224 38//218
f 7//40 39//228 6//36
f 8//47 39//229 7//41
f 8//42 41//236 40//231
f 9//50 41//237 8//48
f 10//56 41//238 9//51
f 10//52 43//245 42//240
f 11//61 43//249 10//57
f 12//68 43//250 11//62
f 12//63 45//257 44//251
f 13//73 45//261 12//69
f 14//80 45//262 13//74
f 14//75 47//269 46//263
f 15//85 47//273 14//81
f 16//92 47//274 15//86
f 16//87 49//281 48//275
f 17//97 49//285 16//93
f 18//104 49//286 17//98
f 18//100 51//293 50//287
f 19//109 51//297 18//105
f 20//116 51//298 19//110
f 20//111 53//305 52//299
f 21//121 53//309 20//117
f 22//128 53//310 21//122
f 22//123 55//317 54//311
f 23//133 55//321 22//129
f 24//140 55//322 23//134
f 24//135 57//328 56//323
f 25//143 57//330 24//141
f 26//149 57//331 25//144
f 26//145 59//338 58//332
f 27//154 59//342 26//150
f 28//161 59//343 27//155
f 28//156 61//350 60//344
f 29//166 61//354 28//162
f 30//173 61//355 29//167
f 30//168 63//362 62//356
f 31//178 63//366 30//174
f 32//181 33//187 64//368
f 32//186 63//367 31//179
f 34//195 33//188 2//7
f 36//207 35//199 4//19
f 38//219 37//211 6//31
f 40//232 39//223 8//43
f 42//241 41//235 10//53
f 44//252 43//244 12//64
f 46//264 45//256 14//76
f 48//276 47//268 16//88
f 50//288 49//280 18//101
f 52//300 51//292 20//112
f 54//312 53//304 22//124
f 56//324 55//316 24//136
f 58//333 57//327 26//146
f 60//345 59//337 28//157
f 62//357 61//349 30//169
f 64//369 63//361 32//182
